<?xml version="1.0" encoding="UTF-8"?>
<svg width="907px" height="220px" viewBox="0 0 907 220" version="1.1" xmlns="http://www.w3.org/2000/svg" xmlns:xlink="http://www.w3.org/1999/xlink">
    <title>background-bitacora</title>
    <g id="Page-3" stroke="none" stroke-width="1" fill="none" fill-rule="evenodd">
        <g id="background-bitacora">
            <rect id="Rectangle" fill="#F3F2F2" x="0" y="0" width="907" height="220" rx="4"></rect>
            <path d="M0,145.226235 C0,145.226235 16.0490775,125.605461 38.5591464,134.159311 C61.0692153,142.71316 53.9643182,170.641956 53.9643182,170.641956 C53.9643182,170.641956 64.039642,163.808897 75.0111073,167.237953 C85.9825725,170.667008 84.6555939,185.184909 84.6555939,185.184909 C84.6555939,185.184909 94.5256826,180.800729 102.506354,190.691753 C110.487026,200.582778 106.040786,204.94034 106.040786,204.94034 C106.040786,204.94034 116.402812,187.937548 139.794923,197.470009 C155.411596,186.150995 178.885174,181.242278 197.409607,200.197596 C207.895401,211.057837 197.135732,220 197.135732,220 L0,220 L0,145.226235 Z" id="Trazado_2741" fill="#FFFFFF" fill-rule="nonzero"></path>
            <path d="M907,220 L907,145.226235 L906.696767,144.873987 C904.390797,142.267229 889.150117,126.289769 868.440854,134.159311 C845.930785,142.71316 853.035682,170.641956 853.035682,170.641956 L852.66711,170.40741 C850.760251,169.235993 841.727609,164.194185 831.988893,167.237953 C821.017427,170.667008 822.344406,185.184909 822.344406,185.184909 L822.113136,185.091976 C820.583094,184.511386 811.756057,181.690921 804.493646,190.691753 C797.222367,199.703575 800.266959,204.121941 800.865672,204.836224 L800.959214,204.94034 C800.959214,204.94034 790.597188,187.937548 767.205077,197.470009 C751.588404,186.150995 728.114826,181.242278 709.590393,200.197596 C699.104599,211.057837 709.864268,220 709.864268,220 L907,220 Z" id="Trazado_2741" fill="#FFFFFF" fill-rule="nonzero"></path>
            <g id="woman-bitacora" transform="translate(48.649488, 23.000287)">
                <polygon id="Fill-4" fill="#FFD9C0" transform="translate(20.274012, 189.228713) scale(-1, 1) translate(-20.274012, -189.228713) " points="14.7785116 192.455713 25.7695116 192.455713 25.7695116 186.001713 14.7785116 186.001713"></polygon>
                <path d="M109.392429,126.181313 C94.9554291,125.422313 66.3794291,126.944313 40.1874291,128.007313 C30.4694291,128.402313 22.8794291,137.173313 26.4274291,145.383313 C34.1794291,163.318313 37.0134291,170.777313 42.8704291,180.296313 L50.3204291,175.806313 L44.1754291,152.526313 C43.2164291,148.667313 44.5344291,146.742313 47.5074291,146.766313 C63.8954291,146.898313 79.0944291,149.620313 94.2754291,150.568313 L109.392429,126.181313 Z" id="Fill-6" fill="#0063BD" transform="translate(67.465870, 153.136601) scale(-1, 1) translate(-67.465870, -153.136601) "></path>
                <path d="M103.521309,181.698913 L82.809309,194.738913 C81.292309,195.694913 79.608309,193.781913 80.752309,192.401913 L89.652309,181.670913 L99.563309,175.430913 L103.521309,181.698913 Z" id="Fill-7" fill="#FFAA71" transform="translate(91.948310, 185.213706) scale(-1, 1) translate(-91.948310, -185.213706) "></path>
                <path d="M17.7394116,131.250713 C17.0714116,141.178713 24.5894116,149.768713 34.5314116,150.436713 C44.4744116,151.103713 53.0764116,143.596713 53.7454116,133.667713 C54.4134116,123.738713 46.8954116,115.148713 36.9534116,114.480713 C27.0094116,113.813713 18.4074116,121.320713 17.7394116,131.250713" id="Fill-8" fill="#007ECC" transform="translate(35.742412, 132.458713) scale(-1, 1) translate(-35.742412, -132.458713) "></path>
                <path d="M62.160782,126.044613 C54.555782,137.743613 35.558782,149.916613 23.310782,173.230613 C18.216782,182.928613 25.227782,194.566613 36.195782,194.619613 C55.517782,194.713613 72.689782,194.765613 83.364782,194.469613 L83.364782,185.481613 L48.441782,179.488613 C43.638782,178.567613 43.465782,174.938613 45.109782,173.729613 C53.836782,167.308613 77.650782,151.572613 85.610782,143.653613 L62.160782,126.044613 Z" id="Fill-9" fill="#007ECC" transform="translate(53.614247, 160.368934) scale(-1, 1) translate(-53.614247, -160.368934) "></path>
                <path d="M53.3771475,137.873713 L83.4841475,117.762713 C76.2461475,93.8367133 62.1571475,71.9367133 41.2021475,52.0667133 C38.6481475,49.6457133 34.7311475,49.3847133 31.9061475,51.4837133 C22.1341475,58.0117133 19.5121475,71.2147133 26.0491475,80.9727133 L53.3771475,137.873713 Z" id="Fill-10" fill="#FF8F3B" transform="translate(52.968480, 93.969586) scale(-1, 1) translate(-52.968480, -93.969586) "></path>
                <path d="M83.217547,137.873713 L83.217547,137.873713 C84.222547,120.952713 82.381547,103.983713 77.772547,87.6707133 L66.539547,47.9207133 L61.746547,51.4837133 C51.974547,58.0117133 49.352547,71.2147133 55.889547,80.9727133 L83.217547,137.873713 Z" id="Fill-11" fill="#FF7800" transform="translate(67.888679, 92.897213) scale(-1, 1) translate(-67.888679, -92.897213) "></path>
                <path d="M58.5986116,86.3019133 C58.5986116,79.3819133 64.2156116,73.7709133 71.1466116,73.7709133 C78.0776116,73.7709133 83.6956116,79.3819133 83.6956116,86.3019133 C83.6956116,93.2219133 78.0776116,98.8319133 71.1466116,98.8319133 C64.2156116,98.8319133 58.5986116,93.2219133 58.5986116,86.3019133" id="Fill-12" fill="#FF8F3B" transform="translate(71.147112, 86.301413) scale(-1, 1) translate(-71.147112, -86.301413) "></path>
                <path d="M58.5986116,86.3019133 C58.5986116,79.3819133 64.2156116,73.7709133 71.1466116,73.7709133 C78.0776116,73.7709133 83.6956116,79.3819133 83.6956116,86.3019133 C83.6956116,93.2219133 78.0776116,98.8319133 71.1466116,98.8319133 C64.2156116,98.8319133 58.5986116,93.2219133 58.5986116,86.3019133" id="Fill-13" fill="#FF7800" transform="translate(71.147112, 86.301413) scale(-1, 1) translate(-71.147112, -86.301413) "></path>
                <path d="M4.414,179.551513 L24.094,194.097513 C25.537,195.163513 24.361,197.423513 22.658,196.859513 L9.417,192.468513 L0,185.507513 L4.414,179.551513 Z" id="Fill-14" fill="#FFAA71" transform="translate(12.371706, 188.250003) scale(-1, 1) translate(-12.371706, -188.250003) "></path>
                <path d="M92.8978241,134.350313 C90.7098241,135.577313 87.9398241,134.799313 86.7108241,132.614313 C85.4828241,130.429313 86.2618241,127.663313 88.4498241,126.436313 C90.6378241,125.210313 93.4078241,125.987313 94.6358241,128.172313 C95.8648241,130.358313 95.0858241,133.123313 92.8978241,134.350313" id="Fill-15" fill="#FFD9C0" transform="translate(90.673668, 130.393535) scale(-1, 1) translate(-90.673668, -130.393535) "></path>
                <path d="M110.7742,122.922613 L110.6332,123.011613 C109.6172,123.652613 109.3142,124.994613 109.9562,126.008613 L114.5162,132.916613 C115.1582,133.930613 116.5022,134.233613 117.5182,133.592613 L117.6582,133.504613 C118.6742,132.862613 118.9782,131.521613 118.3362,130.506613 L113.7762,123.599613 C113.1332,122.584613 111.7902,122.281613 110.7742,122.922613" id="Fill-16" fill="#FFC49C" transform="translate(114.146056, 128.257636) scale(-1, 1) translate(-114.146056, -128.257636) "></path>
                <path d="M125.054312,130.787813 L125.227312,128.121813 L100.504312,126.523813 C99.3513116,126.449813 98.3563116,127.322813 98.2823116,128.474813 L98.2433116,129.055813 L125.054312,130.787813 Z" id="Fill-17" fill="#D6DCE9" transform="translate(111.735312, 128.653624) scale(-1, 1) translate(-111.735312, -128.653624) "></path>
                <path d="M125.223416,130.548513 L125.223416,130.548513 C125.271416,129.811513 124.711416,129.176513 123.975416,129.128513 L99.8334162,127.569513 C99.0964162,127.521513 98.4594162,128.079513 98.4124162,128.816513 C98.3644162,129.551513 98.9234162,130.187513 99.6604162,130.235513 L123.802416,131.794513 C124.539416,131.842513 125.175416,131.284513 125.223416,130.548513" id="Fill-18" fill="#7194BD" transform="translate(111.817914, 129.682013) scale(-1, 1) translate(-111.817914, -129.682013) "></path>
                <path d="M105.877583,128.458713 C104.578583,128.872713 103.189583,128.154713 102.776583,126.857713 C102.362583,125.560713 103.080583,124.174713 104.379583,123.761713 C105.678583,123.348713 107.066583,124.064713 107.481583,125.362713 C107.894583,126.658713 107.176583,128.045713 105.877583,128.458713" id="Fill-19" fill="#FFC49C" transform="translate(105.128848, 126.110357) scale(-1, 1) translate(-105.128848, -126.110357) "></path>
                <path d="M110.849283,128.118813 C109.550283,128.531813 108.161283,127.813813 107.748283,126.517813 C107.334283,125.220813 108.052283,123.833813 109.351283,123.420813 C110.651283,123.007813 112.039283,123.724813 112.453283,125.021813 C112.866283,126.318813 112.148283,127.704813 110.849283,128.118813" id="Fill-20" fill="#FFC49C" transform="translate(110.100548, 125.769769) scale(-1, 1) translate(-110.100548, -125.769769) "></path>
                <polyline id="Fill-21" fill="#FFD9C0" transform="translate(96.684212, 131.109413) scale(-1, 1) translate(-96.684212, -131.109413) " points="92.4082116 134.012413 100.542212 134.547413 100.960212 128.206413 92.8272116 127.671413"></polyline>
                <path d="M108.007668,136.306313 L106.384668,136.402313 L106.383668,136.400313 L99.7166678,135.604313 C98.4036678,135.494313 97.6966678,134.247313 97.8086678,132.936313 C97.9196678,131.624313 99.2076678,130.604313 100.520668,130.715313 L107.790668,131.301313 L107.874668,130.688313 C108.042668,128.711313 109.799668,127.238313 111.779668,127.406313 L116.927668,127.835313 L116.553668,129.233313 C116.197668,133.427313 112.207668,136.661313 108.007668,136.306313" id="Fill-22" fill="#FFD9C0" transform="translate(107.362390, 131.897785) scale(-1, 1) translate(-107.362390, -131.897785) "></path>
                <path d="M63.3337514,138.379013 L58.7137514,122.430013 C58.7347514,122.423013 62.4827514,121.312013 66.6187514,119.239013 C72.8427514,116.119013 74.7997514,113.470013 75.3717514,112.413013 C75.4797514,112.087013 76.2117514,109.404013 74.5647514,100.621013 C73.3647514,94.2210133 71.4057514,87.0740133 69.6757514,80.7670133 C68.0277514,74.7530133 66.7247514,70.0020133 66.2937514,66.7360133 C65.6917514,62.1910133 68.8897514,58.0180133 73.4347514,57.4170133 C77.9827514,56.8170133 82.1527514,60.0140133 82.7547514,64.5590133 C83.0377514,66.7030133 84.3257514,71.4020133 85.6897514,76.3770133 C91.1737514,96.3790133 94.7027514,111.215013 90.1417514,120.000013 C87.3007514,125.470013 81.7907514,130.257013 73.7627514,134.230013 C68.3317514,136.918013 63.5357514,138.320013 63.3337514,138.379013 L63.3337514,138.379013 Z" id="Fill-23" fill="#FFAA71" transform="translate(75.474931, 97.861831) scale(-1, 1) translate(-75.474931, -97.861831) "></path>
                <path d="M86.2301778,12.0778133 L86.2301778,12.0778133 C83.1511778,13.8078133 80.7951778,15.9958133 78.8121778,18.6538133 C72.6001778,26.3968133 71.3991778,37.4788133 76.5431778,46.6078133 L83.9171778,59.6918133 L86.6681778,58.1458133 C94.0561778,63.5138133 104.370178,64.8568133 112.835178,60.0988133 C112.835178,60.0988133 112.842178,60.0958133 112.851178,60.0908133 C124.836178,53.3548133 128.892178,37.9998133 122.146178,26.0318133 L119.546178,21.4188133 C112.913178,9.64781326 98.0181778,5.45281326 86.2301778,12.0778133" id="Fill-24" fill="#FFD9C0" transform="translate(99.359845, 35.977194) scale(-1, 1) translate(-99.359845, -35.977194) "></path>
                <path d="M80.4115894,44.5793133 L78.5595894,45.6203133 C75.5345894,47.3203133 71.7025894,46.2503133 70.0005894,43.2293133 L57.3345894,20.7543133 L69.4555894,13.9433133 L82.5075894,37.1003133 C83.9965894,39.7443133 83.0585894,43.0923133 80.4115894,44.5793133" id="Fill-25" fill="#1B2F73" transform="translate(70.274801, 30.185778) scale(-1, 1) translate(-70.274801, -30.185778) "></path>
                <path d="M61.8131328,31.0754133 C59.4091328,26.8104133 60.9221328,21.4084133 65.1941328,19.0074133 C69.4641328,16.6074133 74.8751328,18.1194133 77.2791328,22.3834133 C79.6811328,26.6484133 78.1671328,32.0514133 73.8981328,34.4514133 C69.6261328,36.8514133 64.2161328,35.3404133 61.8131328,31.0754133" id="Fill-26" fill="#1B2F73" transform="translate(69.545372, 26.729519) scale(-1, 1) translate(-69.545372, -26.729519) "></path>
                <path d="M54.5708003,43.9255133 C52.1668003,39.6605133 53.6798003,34.2575133 57.9518003,31.8575133 C62.2208003,29.4575133 67.6338003,30.9695133 70.0358003,35.2335133 C72.4398003,39.4985133 70.9248003,44.9015133 66.6558003,47.3015133 C62.3838003,49.7025133 56.9738003,48.1905133 54.5708003,43.9255133" id="Fill-27" fill="#1B2F73" transform="translate(62.303106, 39.579841) scale(-1, 1) translate(-62.303106, -39.579841) "></path>
                <path d="M48.1188667,55.3732133 C45.7148667,51.1082133 47.2288667,45.7052133 51.4998667,43.3052133 C55.3828667,41.1232133 60.2068667,42.1742133 62.8568667,45.5872133 C63.1228667,45.9282133 63.3658667,46.2932133 63.5848667,46.6812133 C65.9878667,50.9462133 64.4738667,56.3492133 60.2038667,58.7492133 C55.9328667,61.1492133 50.5218667,59.6382133 48.1188667,55.3732133" id="Fill-28" fill="#1B2F73" transform="translate(55.851539, 51.027223) scale(-1, 1) translate(-55.851539, -51.027223) "></path>
                <path d="M96.3042578,58.2043133 L96.3042578,58.2043133 C92.9262578,60.1033133 88.6462578,58.9073133 86.7452578,55.5333133 L74.1472578,33.1803133 L86.3812578,26.3043133 L98.9792578,48.6583133 C100.879258,52.0313133 99.6822578,56.3053133 96.3042578,58.2043133" id="Fill-29" fill="#1B2F73" transform="translate(87.014585, 42.705485) scale(-1, 1) translate(-87.014585, -42.705485) "></path>
                <path d="M72.0933675,36.8537133 C69.6903675,32.5887133 71.2033675,27.1857133 75.4743675,24.7857133 C79.7443675,22.3857133 85.1563675,23.8967133 87.5593675,28.1617133 C89.9633675,32.4267133 88.4493675,37.8297133 84.1783675,40.2297133 C79.9073675,42.6297133 74.4963675,41.1187133 72.0933675,36.8537133" id="Fill-30" fill="#1B2F73" transform="translate(79.826590, 32.507713) scale(-1, 1) translate(-79.826590, -32.507713) "></path>
                <path d="M64.8513451,49.7038133 C62.4483451,45.4388133 63.9613451,40.0368133 68.2333451,37.6358133 C72.5023451,35.2358133 77.9143451,36.7468133 80.3173451,41.0118133 C82.7213451,45.2768133 81.2063451,50.6798133 76.9363451,53.0798133 C72.6653451,55.4798133 67.2543451,53.9698133 64.8513451,49.7038133" id="Fill-31" fill="#1B2F73" transform="translate(72.584478, 45.357919) scale(-1, 1) translate(-72.584478, -45.357919) "></path>
                <path d="M58.4003778,61.1511133 C55.9963778,56.8861133 57.5093778,51.4841133 61.7813778,49.0831133 C65.6633778,46.9011133 70.4883778,47.9521133 73.1383778,51.3651133 C73.4043778,51.7071133 73.6473778,52.0711133 73.8663778,52.4601133 C76.2693778,56.7241133 74.7553778,62.1281133 70.4853778,64.5281133 C66.2133778,66.9281133 60.8033778,65.4171133 58.4003778,61.1511133" id="Fill-32" fill="#1B2F73" transform="translate(66.132945, 56.805606) scale(-1, 1) translate(-66.132945, -56.805606) "></path>
                <path d="M89.695246,32.4084133 C91.764246,31.2464133 94.385246,31.9794133 95.550246,34.0454133 C96.715246,36.1114133 95.981246,38.7284133 93.913246,39.8914133" id="Fill-33" fill="#FFD9C0" transform="translate(92.899529, 35.874007) scale(-1, 1) translate(-92.899529, -35.874007) "></path>
                <path d="M84.0453438,8.83861326 L92.2433438,4.23261326 C105.132344,-3.01138674 120.025344,-1.22038674 127.279344,11.6486133 L130.574344,17.4956133 L84.3863438,43.4536133 L78.3353438,36.4026133 L81.0933438,45.3036133 L75.5093438,48.4416133 L72.2143438,42.5956133 C64.9613438,29.7256133 71.1563438,16.0826133 84.0453438,8.83861326" id="Fill-34" fill="#1B2F73" transform="translate(99.853378, 24.220807) scale(-1, 1) translate(-99.853378, -24.220807) "></path>
                <path d="M105.036739,49.8029133 C104.818739,49.8029133 104.608739,49.6869133 104.497739,49.4819133 C104.003739,48.5709133 103.893739,47.5219133 104.189739,46.5289133 C104.485739,45.5349133 105.150739,44.7169133 106.062739,44.2229133 C107.944739,43.2049133 110.307739,43.9069133 111.326739,45.7869133 C111.487739,46.0839133 111.377739,46.4559133 111.080739,46.6169133 C110.782739,46.7789133 110.410739,46.6689133 110.249739,46.3709133 C109.551739,45.0839133 107.934739,44.6039133 106.645739,45.3019133 C106.021739,45.6389133 105.566739,46.1989133 105.364739,46.8779133 C105.162739,47.5579133 105.236739,48.2749133 105.574739,48.8979133 C105.735739,49.1959133 105.625739,49.5669133 105.328739,49.7289133 C105.235739,49.7789133 105.135739,49.8029133 105.036739,49.8029133" id="Fill-39" fill="#1B2F73" transform="translate(107.713825, 46.779405) scale(-1, 1) translate(-107.713825, -46.779405) "></path>
                <g id="cloud" transform="translate(113.350512, 63.999713)">
                    <g id="Group-10" transform="translate(0.351287, 0.672291)">
                        <path d="M14.0468227,36.3559866 L41.3004682,36.3559866 L41.3004682,36.3559866 L52.5604013,44.97699 L52.5604013,14.0468227 C52.5604013,6.28897676 46.2714246,3.90397733e-15 38.5135786,0 L14.0468227,0 C6.28897676,3.20145003e-15 8.26294714e-16,6.28897676 0,14.0468227 L0,22.3091639 C9.50062125e-16,30.0670099 6.28897676,36.3559866 14.0468227,36.3559866 Z" id="Fill-35" fill="#FFD9C0" transform="translate(26.280201, 22.488495) scale(-1, 1) translate(-26.280201, -22.488495) "></path>
                        <path d="M28.7747036,28.0936455 C29.4799623,28.0936455 30.0516874,28.6653706 30.0516874,29.3706294 C30.0516874,30.0318094 29.5491946,30.575626 28.9052677,30.6410203 L28.7747036,30.6476133 L13.4508969,30.6476133 C12.7456382,30.6476133 12.173913,30.0758881 12.173913,29.3706294 C12.173913,28.7094493 12.6764059,28.1656327 13.3203327,28.1002384 L13.4508969,28.0936455 L28.7747036,28.0936455 Z M38.9905746,28.0936455 C39.6958334,28.0936455 40.2675585,28.6653706 40.2675585,29.3706294 C40.2675585,30.0318094 39.7650657,30.575626 39.1211388,30.6410203 L38.9905746,30.6476133 L33.8826391,30.6476133 C33.1773804,30.6476133 32.6056552,30.0758881 32.6056552,29.3706294 C32.6056552,28.7094493 33.108148,28.1656327 33.7520749,28.1002384 L33.8826391,28.0936455 L38.9905746,28.0936455 Z M17.2818486,20.7892977 C17.9871073,20.7892977 18.5588325,21.3610228 18.5588325,22.0662815 C18.5588325,22.7274616 18.0563397,23.2712782 17.4124128,23.3366725 L17.2818486,23.3432654 L13.4508969,23.3432654 C12.7456382,23.3432654 12.173913,22.7715403 12.173913,22.0662815 C12.173913,21.4051015 12.6764059,20.8612849 13.3203327,20.7958906 L13.4508969,20.7892977 L17.2818486,20.7892977 Z M31.3286713,20.7892977 C32.0339301,20.7892977 32.6056552,21.3610228 32.6056552,22.0662815 C32.6056552,22.7274616 32.1031624,23.2712782 31.4592355,23.3366725 L31.3286713,23.3432654 L22.3897841,23.3432654 C21.6845254,23.3432654 21.1128002,22.7715403 21.1128002,22.0662815 C21.1128002,21.4051015 21.6152931,20.8612849 22.2592199,20.7958906 L22.3897841,20.7892977 L31.3286713,20.7892977 Z M28.7747036,13.4849498 C29.4799623,13.4849498 30.0516874,14.056675 30.0516874,14.7619337 C30.0516874,15.4231138 29.5491946,15.9669303 28.9052677,16.0323247 L28.7747036,16.0389176 L24.9437519,16.0389176 C24.2384932,16.0389176 23.666768,15.4671924 23.666768,14.7619337 C23.666768,14.1007537 24.1692608,13.5569371 24.8131877,13.4915428 L24.9437519,13.4849498 L28.7747036,13.4849498 Z M19.8358164,13.4849498 C20.5410751,13.4849498 21.1128002,14.056675 21.1128002,14.7619337 C21.1128002,15.4231138 20.6103074,15.9669303 19.9663805,16.0323247 L19.8358164,16.0389176 L13.4508969,16.0389176 C12.7456382,16.0389176 12.173913,15.4671924 12.173913,14.7619337 C12.173913,14.1007537 12.6764059,13.5569371 13.3203327,13.4915428 L13.4508969,13.4849498 L19.8358164,13.4849498 Z M28.7747036,6.18060201 C29.4799623,6.18060201 30.0516874,6.75232717 30.0516874,7.45758589 C30.0516874,8.16284462 29.4799623,8.73456978 28.7747036,8.73456978 L28.7747036,8.73456978 L13.4508969,8.73456978 C12.7456382,8.73456978 12.173913,8.16284462 12.173913,7.45758589 C12.173913,6.75232717 12.7456382,6.18060201 13.4508969,6.18060201 L13.4508969,6.18060201 Z" id="Combined-Shape" fill="#FFAA71" fill-rule="nonzero"></path>
                    </g>
                </g>
            </g>
        </g>
    </g>
</svg>