<?xml version="1.0" encoding="UTF-8"?>
<svg width="450px" height="56px" viewBox="0 0 450 56" version="1.1" xmlns="http://www.w3.org/2000/svg" xmlns:xlink="http://www.w3.org/1999/xlink">
    <title>background-cloud-light</title>
    <defs>
        <linearGradient x1="69.9005959%" y1="0%" x2="20.4411857%" y2="0%" id="linearGradient-1">
            <stop stop-color="#67B5FA" offset="0%"></stop>
            <stop stop-color="#CDE9FE" offset="100%"></stop>
        </linearGradient>
    </defs>
    <g id="Page-1" stroke="none" stroke-width="1" fill="none" fill-rule="evenodd">
        <g id="background-cloud-light">
            <path d="M326,0 L446,0 C448.209139,-4.05812251e-16 450,1.790861 450,4 L450,56 L450,56 L326,56 L326,0 Z" id="Background" fill="#67B5FA"></path>
            <path d="M4,0 L327,0 L327,0 L327,56 L0,56 L0,4 C-2.705415e-16,1.790861 1.790861,-1.94990455e-15 4,0 Z" id="Background" fill="url(#linearGradient-1)"></path>
            <path d="M0,13.4447174 C0,13.4447174 9.41351318,2.56212616 20.8152466,13.4447174 C28.5706787,1.95399252e-14 58.30896,7 56.727,27.7876125 C58.3976898,21.2940674 74.9761658,16 80.327,27.7876125 C82.897,22.1436125 95.4210815,16 103.744736,27.7876125 C106.257584,8.52961253 142.672943,-3.34576811e-12 158.386,24.1926125 C162.461166,20.677002 173,20.677002 173.725,30.2926125 C175.877,29.3776125 189.152,23.5196125 191.353,41.3836125 C195.493,35.4496125 213.429413,26.671196 223.224,46.6236125 C223.224,41.3836125 236.055969,40 238.013,46.6236125 C244.428,43.6076125 256.863403,40 261.479492,56.0000765 C241.036922,56.0000765 0,56.0000765 0,56.0000765 C0,27.6298371 0,13.4447174 0,13.4447174 Z" id="Cloud" fill="#C9E5FD" fill-rule="nonzero" opacity="0.45"></path>
            <path d="M0,24.5670471 C0,24.5670471 23.4802246,9.52138519 32.445,32.6557464 C49.1010284,25.437088 52.035,41.9437464 52.035,41.9437464 C52.035,41.9437464 65.197876,35.6530457 67.3888245,49.7897464 C70.5436249,43.5371526 84.5019684,43.5371526 87.23,49.7897464 C117.543086,32.6557464 125.454102,55.9767464 125.454102,55.9767464 L0,55.9767464 L0,24.5670471 Z" id="Cloud" fill="#E0F1FF" fill-rule="nonzero" opacity="0.75"></path>
        </g>
    </g>
</svg>