<?xml version="1.0" encoding="UTF-8"?>
<svg width="22px" height="22px" viewBox="0 0 22 22" version="1.1" xmlns="http://www.w3.org/2000/svg" xmlns:xlink="http://www.w3.org/1999/xlink">
    <title>Utility Icons / warning</title>
    <defs>
        <path d="M20.0558561,15.035503 L11.1126609,0.585798817 C10.6440218,-0.195266272 9.62863718,-0.195266272 9.15999813,0.585798817 L0.216802863,15.035503 C-0.329942699,15.9337278 0.216802863,17.183432 1.19313422,17.183432 L19.0795248,17.183432 C20.0558561,17.183432 20.6416549,15.9337278 20.0558561,15.035503 Z M10.1363295,14.0591716 C9.47242417,14.0591716 8.96473186,13.5514793 8.96473186,12.887574 C8.96473186,12.2236686 9.47242417,11.7159763 10.1363295,11.7159763 C10.8002348,11.7159763 11.3079271,12.2236686 11.3079271,12.887574 C11.3079271,13.5514793 10.8002348,14.0591716 10.1363295,14.0591716 Z M11.3079271,10.5443787 C11.3079271,10.7786982 11.1517141,10.9349112 10.9173946,10.9349112 L9.3552644,10.9349112 C9.12094488,10.9349112 8.96473186,10.7786982 8.96473186,10.5443787 L8.96473186,5.46745562 C8.96473186,5.23313609 9.12094488,5.07692308 9.3552644,5.07692308 L10.9173946,5.07692308 C11.1517141,5.07692308 11.3079271,5.23313609 11.3079271,5.46745562 L11.3079271,10.5443787 Z" id="path-1"></path>
    </defs>
    <g id="Cards" stroke="none" stroke-width="1" fill="none" fill-rule="evenodd">
        <g id="Cards-/-Remember-/-Warning-Small" transform="translate(-12, -10)">
            <g id="Utility-Icons-/-warning" transform="translate(12.8637, 12.4083)">
                <mask id="mask-2" fill="white">
                    <use xlink:href="#path-1"></use>
                </mask>
                <use id="🎨-Icon-Color" fill="#706E6B" xlink:href="#path-1"></use>
            </g>
        </g>
    </g>
</svg>