<?xml version="1.0" encoding="UTF-8"?>
<svg width="28px" height="28px" viewBox="0 0 28 28" version="1.1" xmlns="http://www.w3.org/2000/svg" xmlns:xlink="http://www.w3.org/1999/xlink">
    <title>icon-informes</title>
    <g id="Page-1" stroke="none" stroke-width="1" fill="none" fill-rule="evenodd">
        <g id="icon-informes" fill-rule="nonzero">
            <rect id="background" fill="#4BC076" x="0" y="0" width="28" height="28" rx="4"></rect>
            <path d="M4,21.5 C4,22.3333333 4.81081081,23 5.71171171,23 L23.2792793,23 C23.7297297,23 24,22.75 24,22.4166667 L24,21.3333333 C24,21 23.7297297,20.75 23.2792793,20.75 L7.15315315,20.75 C6.79279279,20.75 6.52252252,20.5 6.52252252,20.1666667 L6.52252252,5.58333333 C6.52252252,5.25 6.25225225,5 5.89189189,5 L4.72072072,5 C4.27027027,5 4,5.25 4,5.58333333 L4,21.5 Z M23.8198198,9.41666667 C23.8198198,8.75 23.2792793,8.25 22.6486486,8.25 C22.1981982,8.25 21.9279279,8.41666667 21.6576577,8.58333333 L18.1441441,11.9166667 L15.6216216,9.75 L15.5315315,9.66666667 C15.5315315,9.66666667 15.5315315,9.58333333 15.4414414,9.58333333 C15.4414414,9.58333333 15.3513514,9.58333333 15.3513514,9.5 L15.2612613,9.5 L15.0810811,9.5 L14.990991,9.41666667 L14.5405405,9.41666667 C14.4504505,9.41666667 14.4504505,9.41666667 14.4504505,9.5 L14.1801802,9.5 C14.0900901,9.58333333 14.0900901,9.58333333 14,9.58333333 L14,9.66666667 C14,9.66666667 13.9099099,9.75 13.8198198,9.75 L9.13513514,14.1666667 C8.86486486,14.4166667 8.68468468,14.6666667 8.68468468,15 C8.68468468,15.6666667 9.22522523,16.1666667 9.94594595,16.1666667 C10.2162162,16.1666667 10.4864865,16.0833333 10.7567568,15.9166667 L14.8108108,12.1666667 L17.1531532,14.3333333 L17.2432432,14.4166667 L17.3333333,14.5 C17.4234234,14.5 17.4234234,14.5 17.5135135,14.5833333 L17.6036036,14.5833333 C17.6036036,14.6666667 17.6936937,14.6666667 17.7837838,14.6666667 C17.8738739,14.6666667 17.963964,14.75 18.0540541,14.75 C18.1441441,14.75 18.2342342,14.75 18.3243243,14.6666667 L18.5945946,14.6666667 C18.5945946,14.6666667 18.5945946,14.5833333 18.6846847,14.5833333 C18.7747748,14.5833333 18.7747748,14.5833333 18.7747748,14.5 L18.8648649,14.5 L18.954955,14.4166667 L23.4594595,10.25 C23.7297297,10 23.8198198,9.75 23.8198198,9.41666667 L23.8198198,9.41666667 Z" id="Combined-Shape" fill="#FFFFFF"></path>
        </g>
    </g>
</svg>