<?xml version="1.0" encoding="UTF-8"?>
<svg width="28px" height="28px" viewBox="0 0 28 28" version="1.1" xmlns="http://www.w3.org/2000/svg" xmlns:xlink="http://www.w3.org/1999/xlink">
    <title>icon-satisfaccion</title>
    <g id="Page-1" stroke="none" stroke-width="1" fill="none" fill-rule="evenodd">
        <g id="icon-satisfaccion">
            <rect id="background" fill="#7F8CE1" x="0" y="0" width="28" height="28" rx="4"></rect>
            <path d="M16.4461696,10.3308333 C16.4278789,13.6308192 13.7411541,16.2929309 10.4411402,16.2808342 C7.14112627,16.2686548 4.47405748,13.5868508 4.4800911,10.2868201 C4.48614521,6.98678936 7.1630193,4.31472222 10.4630556,4.31472222 C12.0550604,4.31646388 13.5808756,4.95192007 14.7034882,6.080735 C15.8261009,7.20954993 16.4531408,8.7388431 16.4461696,10.3308333 L16.4461696,10.3308333 Z M8.24833333,7.62027778 C7.81861111,7.62027778 7.48805556,8.05 7.48805556,8.645 C7.48805556,9.17388889 7.78555556,9.66972222 8.24833333,9.66972222 C8.71111111,9.66972222 9.00861111,9.24 9.00861111,8.645 C8.9425,8.08305556 8.645,7.62027778 8.24833333,7.62027778 Z M12.7108333,7.62027778 C12.2811111,7.62027778 11.9505556,8.05 11.9505556,8.645 C11.9505556,9.17388889 12.2480556,9.66972222 12.7108333,9.66972222 C13.1736111,9.66972222 13.4711111,9.24 13.4711111,8.645 C13.4711111,8.05 13.1736111,7.62027778 12.7108333,7.62027778 Z M6.72777778,11.0911111 C6.89305556,12.9752778 8.28138889,14.595 10.43,14.595 C12.4325824,14.6376819 14.1110932,13.0905327 14.2313889,11.0911111 L6.72777778,11.0911111 Z" id="Shape" fill="#FFFFFF" fill-rule="nonzero"></path>
            <path d="M23.7844444,12.6447222 C23.787181,12.5211673 23.7393035,12.4018613 23.6519155,12.3144734 C23.5645276,12.2270854 23.4452216,12.1792079 23.3216667,12.1819444 L18.4955556,12.1488889 C18.3757292,12.1386259 18.2571405,12.1794402 18.169011,12.2612747 C18.0808816,12.3431092 18.0314068,12.4583539 18.0327778,12.5786111 L18.0327778,13.4380556 C18.0300412,13.5616105 18.0779188,13.6809165 18.1653067,13.7683044 C18.2526946,13.8556924 18.3720007,13.9035699 18.4955556,13.9008333 L19.9830556,13.9338889 C20.0975589,13.9399322 20.1981181,14.0119517 20.2407027,14.1184134 C20.2832873,14.224875 20.2601373,14.3463782 20.1813889,14.4297222 L13.5702778,21.0738889 C13.4662621,21.1016069 13.3552644,21.0769407 13.2727778,21.0077778 L9.73583333,17.4047222 C9.57370795,17.2463817 9.31950028,17.232259 9.14083333,17.3716667 L9.14083333,17.3716667 L9.10777778,17.4047222 L9.10777778,17.4047222 L8.47972222,18.0327778 C8.47972222,18.0510339 8.46492275,18.0658333 8.44666667,18.0658333 L4.28166667,22.2308333 C4.11625317,22.407511 4.11625317,22.6822112 4.28166667,22.8588889 L4.90972222,23.4869444 C5.08639987,23.6523579 5.36110013,23.6523579 5.53777778,23.4869444 L8.97555556,20.0822222 C9.20615488,19.8410342 9.58655639,19.8264034 9.835,20.0491667 L13.2066667,23.4538889 C13.2793305,23.5549683 13.3962072,23.614891 13.5206944,23.614891 C13.6451817,23.614891 13.7620584,23.5549683 13.8347222,23.4538889 L21.5036111,15.7188889 C21.5859149,15.6370912 21.7089603,15.6120328 21.8166987,15.6551282 C21.9244372,15.6982236 21.9962574,15.8012281 21.9994444,15.9172222 L22.0325,17.4047222 C22.0297635,17.5282771 22.077641,17.6475832 22.1650289,17.7349711 C22.2524168,17.822359 22.3717229,17.8702365 22.4952778,17.8675 L23.3547222,17.8675 C23.4745486,17.877763 23.5931373,17.8369487 23.6812667,17.7551142 C23.7693962,17.6732797 23.818871,17.558035 23.8175278,17.4377778 L23.7844444,12.6447222 Z" id="Path" fill="#FFFFFF" fill-rule="nonzero"></path>
        </g>
    </g>
</svg>