<?xml version="1.0" encoding="UTF-8"?>
<svg width="32px" height="32px" viewBox="0 0 32 32" version="1.1" xmlns="http://www.w3.org/2000/svg" xmlns:xlink="http://www.w3.org/1999/xlink">
    <title>icon-casos-reportados</title>
    <g id="Page-1" stroke="none" stroke-width="1" fill="none" fill-rule="evenodd">
        <g id="icon-casos-reportados">
            <circle id="background" fill="#F36E83" cx="16" cy="16" r="16"></circle>
            <g id="Group" transform="translate(4.000000, 4.000000)" fill="#FFFFFF">
                <g id="alertas" transform="translate(4.000000, 3.000000)">
                    <path d="M9.87,15.2333333 C10.125,15.2333333 10.295,15.4033333 10.295,15.63 C10.0683333,16.735 9.16166667,17.5 8.02833333,17.5 C6.895,17.5 5.96,16.7066667 5.76166667,15.63 C5.705,15.4033333 5.90333333,15.2333333 6.13,15.2333333 L6.13,15.2333333 Z M7.34833333,0.556666667 C10.72,0.16 13.6666667,2.795 13.6666667,6.08166667 L13.6666667,6.08166667 L13.6666667,9.82166667 C13.6666667,10.4733333 14.1766667,10.9833333 14.8283333,10.9833333 L14.8283333,10.9833333 L14.9983333,10.9833333 C15.5083333,10.9833333 15.9333333,11.4083333 15.9333333,11.9183333 L15.9333333,11.9183333 L15.9333333,12.5983333 C15.9333333,13.1083333 15.5083333,13.5333333 14.9983333,13.5333333 L14.9983333,13.5333333 L1.00166667,13.5333333 C0.491666667,13.5333333 0.0666666667,13.1083333 0.0666666667,12.5983333 L0.0666666667,12.5983333 L0.0666666667,11.9183333 C0.0666666667,11.4083333 0.491666667,10.9833333 1.00166667,10.9833333 L1.00166667,10.9833333 L1.03,10.9833333 C1.73833333,10.9833333 2.33333333,10.3883333 2.33333333,9.68 L2.33333333,9.68 L2.33333333,6.30833333 C2.33333333,3.39 4.45833333,0.868333333 7.34833333,0.556666667 Z" id="icon"></path>
                </g>
            </g>
        </g>
    </g>
</svg>