<?xml version="1.0" encoding="UTF-8"?>
<svg width="24px" height="24px" viewBox="0 0 24 24" version="1.1" xmlns="http://www.w3.org/2000/svg" xmlns:xlink="http://www.w3.org/1999/xlink">
    <title>icon-acciones-totales</title>
    <g id="Page-1" stroke="none" stroke-width="1" fill="none" fill-rule="evenodd">
        <g id="icon-acciones-totales">
            <rect id="background" fill="#F28B00" x="0" y="0" width="24" height="24" rx="4"></rect>
            <path d="M12.0757735,12.4998946 C12.3052703,12.5281492 12.5625335,12.7564465 12.5336339,13.0418182 L12.5336339,13.0418182 L12.5053009,18.9798096 C12.5053009,19.2651813 12.2763707,19.4934787 11.990208,19.4934787 L11.990208,19.4934787 L10.8166573,19.4934787 C10.5871604,19.464659 10.3298973,19.2363616 10.3587969,18.9509899 L10.3587969,18.9509899 L10.3587969,17.0669717 C10.3871298,16.952823 10.3298973,16.8674941 10.2726647,16.8098546 C10.1293,16.6674514 9.90036982,16.6674514 9.75757176,16.8098546 L9.75757176,16.8098546 L5.72126018,20.8350081 C5.49232998,21.0350509 5.14893466,21.0633055 4.91943779,20.8638279 L4.91943779,20.8638279 L4.14708167,20.0930418 C3.94648441,19.892999 3.94648441,19.5222984 4.17541461,19.293436 L4.17541461,19.293436 L8.18282659,15.2971022 C8.24005914,15.2400278 8.26895875,15.1258792 8.26895875,15.0399851 C8.26895875,14.8405075 8.09726109,14.6692845 7.89666383,14.6692845 L7.89666383,14.6692845 L5.92185745,14.6692845 C5.69292724,14.6404647 5.43509742,14.4121674 5.46343037,14.1267957 L5.46343037,14.1267957 L5.46343037,12.9564893 C5.49232998,12.7281919 5.72126018,12.4710748 6.00742295,12.4998946 L6.00742295,12.4998946 Z M6.83763495,6.41916077 C10.0721241,3.19361308 15.3392189,3.19361308 18.5737081,6.41916077 C21.808764,9.64527355 21.808764,14.8978078 18.5737081,18.1233555 C17.314592,19.3507363 15.7404134,20.1215224 14.1084357,20.4068941 L14.1084357,20.4068941 L14.1656683,18.7223535 C15.3392189,18.4658016 16.4844366,17.8662385 17.4001575,16.952484 C19.976189,14.3841388 19.976189,10.1589426 17.4001575,7.59003232 C14.8235593,5.02055696 10.5872171,5.02055696 8.0111856,7.59003232 C7.09546476,8.53204143 6.49423963,9.64527355 6.23640982,10.8438346 L6.23640982,10.8438346 L4.5477662,10.8438346 C4.83392896,9.21693347 5.57795214,7.67536128 6.83763495,6.41916077 Z M9.18473625,8.76033877 C11.1312097,6.81924622 14.2801334,6.81924622 16.2266068,8.76033877 C18.1730802,10.7008662 18.1730802,13.8416501 16.2266068,15.7821775 C15.6542813,16.3823057 14.9380244,16.7818261 14.1940012,17.0101234 L14.1940012,17.0101234 L14.1940012,15.2114342 C14.5090636,15.0402111 14.795793,14.8401684 15.0530562,14.5836164 C16.3410719,13.2991613 16.3410719,11.1862807 15.0530562,9.90182552 C13.7644737,8.61737039 11.6463027,8.61737039 10.3582869,9.90182552 C10.1010237,10.1871972 9.87209354,10.473134 9.72872883,10.81558 L9.72872883,10.81558 L7.95395305,10.81558 C8.18288326,10.0730485 8.58407778,9.35933677 9.18473625,8.76033877 Z" id="icon" fill="#FFFFFF"></path>
        </g>
    </g>
</svg>