<?xml version="1.0" encoding="UTF-8"?>
<svg width="32px" height="32px" viewBox="0 0 32 32" version="1.1" xmlns="http://www.w3.org/2000/svg" xmlns:xlink="http://www.w3.org/1999/xlink">
    <title>icon-satisfaccion</title>
    <g id="Page-1" stroke="none" stroke-width="1" fill="none" fill-rule="evenodd">
        <g id="icon-satisfaccion">
            <circle id="background" fill="#7F8CE1" cx="16" cy="16" r="16"></circle>
            <path d="M21.2896706,13.715 L25.4263372,13.7433333 C25.5322414,13.7409877 25.6345038,13.7820256 25.7094077,13.8569295 C25.7843116,13.9318335 25.8253495,14.0340958 25.8230039,14.14 L25.8230039,14.14 L25.851361,18.2483333 C25.8525124,18.351411 25.8101054,18.4501921 25.7345659,18.520336 C25.6590264,18.5904798 25.5573789,18.6254635 25.4546706,18.6166667 L25.4546706,18.6166667 L24.7180039,18.6166667 C24.6120997,18.6190123 24.5098374,18.5779744 24.4349335,18.5030705 C24.3600295,18.4281665 24.3189916,18.3259042 24.3213372,18.22 L24.3213372,18.22 L24.2930039,16.945 C24.2902721,16.8455765 24.228712,16.7572869 24.1363647,16.720348 C24.0440175,16.6834091 23.93855,16.7048877 23.8680039,16.775 L23.8680039,16.775 L17.2946706,23.405 C17.2323873,23.4916395 17.1322073,23.5430018 17.0255039,23.5430018 C16.9188006,23.5430018 16.8186205,23.4916395 16.7563372,23.405 L16.7563372,23.405 L13.8663372,20.4866667 C13.6533856,20.2957267 13.3273271,20.3082674 13.1296706,20.515 L13.1296706,20.515 L10.1830039,23.4333333 C10.0315659,23.5751163 9.79610856,23.5751163 9.64467058,23.4333333 L9.64467058,23.4333333 L9.10633725,22.895 C8.96455425,22.743562 8.96455425,22.5081046 9.10633725,22.3566667 L9.10633725,22.3566667 L12.6763372,18.7866667 C12.6919853,18.7866667 12.7046706,18.7739814 12.7046706,18.7583333 L12.7046706,18.7583333 L13.2430039,18.22 L13.2713372,18.1916667 L13.3405154,18.1484894 C13.4851245,18.0781558 13.6622247,18.1036682 13.7813372,18.22 L13.7813372,18.22 L16.8130039,21.3083333 C16.8837067,21.3676159 16.9788476,21.3887583 17.0680039,21.365 L17.0680039,21.365 L22.7346706,15.67 C22.8021692,15.5985623 22.8220121,15.4944167 22.785511,15.4031638 C22.7490099,15.311911 22.6628163,15.25018 22.5646706,15.245 L22.5646706,15.245 L21.2896706,15.2166667 C21.1837664,15.2190123 21.0815041,15.1779744 21.0066001,15.1030705 C20.9316962,15.0281665 20.8906583,14.9259042 20.8930039,14.82 L20.8930039,14.82 L20.8930039,14.0833333 C20.8918288,13.9802557 20.9342358,13.8814745 21.0097753,13.8113307 C21.0853148,13.7411869 21.1869623,13.7062032 21.2896706,13.715 L21.2896706,13.715 Z M14.4046706,7 C15.7692461,7.00149285 17.0770877,7.54616958 18.0393272,8.51372524 C19.0015666,9.48128089 19.5390293,10.7921036 19.533054,12.1566667 C19.5173763,14.985226 17.2144694,17.267036 14.385886,17.2566674 C11.5573026,17.2462279 9.27124366,14.9475388 9.27641533,12.118941 C9.28160457,9.29034326 11.5760681,7 14.4046706,7 Z M17.6346706,12.8083333 L11.2030039,12.8083333 C11.3446706,14.4233333 12.5346706,15.8116667 14.3763372,15.8116667 C16.0928364,15.8482511 17.53156,14.5221233 17.6346706,12.8083333 Z M12.5063372,9.83333333 C12.1380039,9.83333333 11.8546706,10.2016667 11.8546706,10.7116667 C11.8546706,11.165 12.1096706,11.59 12.5063372,11.59 C12.9030039,11.59 13.1580039,11.2216667 13.1580039,10.7116667 C13.1013372,10.23 12.8463372,9.83333333 12.5063372,9.83333333 Z M16.3313372,9.83333333 C15.9630039,9.83333333 15.6796706,10.2016667 15.6796706,10.7116667 C15.6796706,11.165 15.9346706,11.59 16.3313372,11.59 C16.7280039,11.59 16.9830039,11.2216667 16.9830039,10.7116667 C16.9830039,10.2016667 16.7280039,9.83333333 16.3313372,9.83333333 Z" id="Combined-Shape" fill="#FFFFFF" fill-rule="nonzero"></path>
        </g>
    </g>
</svg>