<?xml version="1.0" encoding="UTF-8"?>
<svg width="50px" height="50px" viewBox="0 0 50 50" version="1.1" xmlns="http://www.w3.org/2000/svg" xmlns:xlink="http://www.w3.org/1999/xlink">
    <title>icon</title>
    <g id="Page-2" stroke="none" stroke-width="1" fill="none" fill-rule="evenodd">
        <g id="BDN-Telerevi-1" transform="translate(-257.000000, -673.000000)">
            <g id="Columna-IZQ" transform="translate(10.000000, 323.000000)">
                <g id="text" transform="translate(95.000000, 350.000000)">
                    <g id="icon" transform="translate(152.000000, 0.000000)">
                        <rect id="background" fill="#0070D2" x="0" y="0" width="50" height="50" rx="25"></rect>
                        <path d="M17.15,14 C17.4,14 17.55,14.15 17.55,14.4 L17.55,14.4 L17.55,16 C17.55,17.75 18.95,19.2 20.7,19.2 L20.7,19.2 L29.3,19.2 C31.05,19.2 32.45,17.75 32.45,16 L32.45,16 L32.45,14.4 C32.45,14.15 32.6,14 32.85,14 L32.85,14 L33.65,14 C34.95,14 36,15.1 36,16.4 L36,16.4 L36,33.6 C36,34.9 34.95,36 33.65,36 L33.65,36 L16.35,36 C15.05,36 14,34.9 14,33.6 L14,33.6 L14,16.4 C14,15.1 15.05,14 16.35,14 L16.35,14 Z M19.9,29.6 L19.1,29.6 C18.65,29.6 18.3,29.95 18.3,30.4 L18.3,30.4 L18.3,31.2 C18.3,31.65 18.65,32 19.1,32 L19.1,32 L19.9,32 C20.35,32 20.7,31.65 20.7,31.2 L20.7,31.2 L20.7,30.4 C20.7,29.95 20.35,29.6 19.9,29.6 L19.9,29.6 Z M30.9,29.6 L23.05,29.6 C22.6,29.6 22.25,29.95 22.25,30.4 L22.25,30.4 L22.25,31.2 C22.25,31.65 22.6,32 23.05,32 L23.05,32 L30.9,32 C31.35,32 31.7,31.65 31.7,31.2 L31.7,31.2 L31.7,30.4 C31.7,29.95 31.35,29.6 30.9,29.6 L30.9,29.6 Z M19.9,25.6 L19.1,25.6 C18.65,25.6 18.3,25.95 18.3,26.4 L18.3,26.4 L18.3,27.2 C18.3,27.65 18.65,28 19.1,28 L19.1,28 L19.9,28 C20.35,28 20.7,27.65 20.7,27.2 L20.7,27.2 L20.7,26.4 C20.7,25.95 20.35,25.6 19.9,25.6 L19.9,25.6 Z M30.9,25.6 L23.05,25.6 C22.6,25.6 22.25,25.95 22.25,26.4 L22.25,26.4 L22.25,27.2 C22.25,27.65 22.6,28 23.05,28 L23.05,28 L30.9,28 C31.35,28 31.7,27.65 31.7,27.2 L31.7,27.2 L31.7,26.4 C31.7,25.95 31.35,25.6 30.9,25.6 L30.9,25.6 Z M19.9,21.6 L19.1,21.6 C18.65,21.6 18.3,21.95 18.3,22.4 L18.3,22.4 L18.3,23.2 C18.3,23.65 18.65,24 19.1,24 L19.1,24 L19.9,24 C20.35,24 20.7,23.65 20.7,23.2 L20.7,23.2 L20.7,22.4 C20.7,21.95 20.35,21.6 19.9,21.6 L19.9,21.6 Z M30.9,21.6 L23.05,21.6 C22.6,21.6 22.25,21.95 22.25,22.4 L22.25,22.4 L22.25,23.2 C22.25,23.65 22.6,24 23.05,24 L23.05,24 L30.9,24 C31.35,24 31.7,23.65 31.7,23.2 L31.7,23.2 L31.7,22.4 C31.7,21.95 31.35,21.6 30.9,21.6 L30.9,21.6 Z M27.8,12 C29.1,12 30.15,13.1 30.15,14.4 L30.15,14.4 L30.15,16 C30.15,16.45 29.8,16.8 29.35,16.8 L29.35,16.8 L20.7,16.8 C20.25,16.8 19.9,16.45 19.95,16 L19.95,16 L19.95,14.4 C19.95,13.1 21,12 22.3,12 L22.3,12 Z" fill="#FFFFFF" fill-rule="nonzero"></path>
                    </g>
                </g>
            </g>
        </g>
    </g>
</svg>