<?xml version="1.0" encoding="UTF-8"?>
<svg width="40px" height="40px" viewBox="0 0 40 40" version="1.1" xmlns="http://www.w3.org/2000/svg" xmlns:xlink="http://www.w3.org/1999/xlink">
    <title>actualizar-datos</title>
    <defs>
        <rect id="path-1" x="0" y="0" width="40" height="40" rx="20"></rect>
    </defs>
    <g id="Page-1" stroke="none" stroke-width="1" fill="none" fill-rule="evenodd">
        <g id="Consumo---Portal-Accesos-directos" transform="translate(-821.000000, -370.000000)">
            <g id="Shortcuts" transform="translate(371.000000, 330.000000)">
                <g id="Buttons" transform="translate(20.000000, 20.000000)">
                    <g id="Actualizar-Datos" transform="translate(390.000000, 0.000000)">
                        <g id="actualizar-datos" transform="translate(40.000000, 20.000000)">
                            <mask id="mask-2" fill="white">
                                <use xlink:href="#path-1"></use>
                            </mask>
                            <use id="Icon-Background" fill="#FCB95B" xlink:href="#path-1"></use>
                            <g id="Group" mask="url(#mask-2)">
                                <g transform="translate(8.000000, 8.000000)" id="c/ic_card_credit_r">
                                    <path d="M3,2.00069121 L11,2.00069121 C11.5522847,2.00069121 12,2.44840646 12,3.00069121 C12,3.51352705 11.6139598,3.93619837 11.1166211,3.99396348 L11,4.00069121 L4,4.00069121 L4,20.0006912 L20,20.0006912 L20,13.0006912 C20,12.4484065 20.4477153,12.0006912 21,12.0006912 C21.5128358,12.0006912 21.9355072,12.3867314 21.9932723,12.8840701 L22,13.0006912 L22,21.0006912 C22,21.513527 21.6139598,21.9361984 21.1166211,21.9939635 L21,22.0006912 L3,22.0006912 C2.48716416,22.0006912 2.06449284,21.614651 2.00672773,21.1173123 L2,21.0006912 L2,3.00069121 C2,2.48785537 2.38604019,2.06518405 2.88337887,2.00741894 L3,2.00069121 L11,2.00069121 L3,2.00069121 Z M18.6788225,2.27951372 L21.7211775,5.3218687 C22.0960808,5.69677202 22.0960808,6.3046104 21.7211775,6.67951372 L11.6636039,16.7370873 C11.4948212,16.9058701 11.2659026,17.0006912 11.0272078,17.0006912 L8,17.0006912 C7.44771525,17.0006912 7,16.552976 7,16.0006912 L7,12.9734834 C7,12.7347886 7.09482116,12.5058701 7.2636039,12.3370873 L14.093,5.508 L14.0929221,5.50733623 L17.3211775,2.27951372 C17.4942098,2.10648142 17.7168614,2.01331018 17.9433299,2 L18.0566701,2 C18.2831386,2.01331018 18.5057902,2.10648142 18.6788225,2.27951372 Z M15.507,6.922 L9,13.4291183 L9,15.0006912 L10.5715729,15.0006912 L17.078,8.493 L15.507,6.922 Z M18,4.42911833 L16.921444,5.50743106 L18.4930169,7.07900393 L19.5715729,6.00069121 L18,4.42911833 Z" id="color🎨" fill="#FFFFFF"></path>
                                </g>
                            </g>
                        </g>
                    </g>
                </g>
            </g>
        </g>
    </g>
</svg>