<?xml version="1.0" encoding="UTF-8"?>
<svg width="32px" height="32px" viewBox="0 0 32 32" version="1.1" xmlns="http://www.w3.org/2000/svg" xmlns:xlink="http://www.w3.org/1999/xlink">
    <title>icon-header-counter</title>
    <g id="BDN-REVI-360---Desktop" stroke="none" stroke-width="1" fill="none" fill-rule="evenodd">
        <g id="BDN-REVI-360-V4-1" transform="translate(-982.000000, -482.000000)">
            <g id="DER" transform="translate(966.000000, 377.000000)">
                <g id="component/header/header_counter" transform="translate(0.000000, 85.000000)">
                    <g id="icon-header-counter" transform="translate(16.000000, 20.000000)">
                        <rect id="background" fill="#006DCC" x="0" y="0" width="32" height="32" rx="16"></rect>
                        <path d="M23.3666667,13.7333333 C23.6783333,13.7333333 23.9333333,13.9883333 23.9333333,14.3 L23.9333333,14.3 L23.9333333,22.8 C23.9333333,23.735 23.1683333,24.5 22.2333333,24.5 L22.2333333,24.5 L9.76666667,24.5 C8.83166667,24.5 8.06666667,23.735 8.06666667,22.8 L8.06666667,22.8 L8.06666667,14.3 C8.06666667,13.9883333 8.32166667,13.7333333 8.63333333,13.7333333 L8.63333333,13.7333333 Z M19.6833333,7.5 C20.3066667,7.5 20.8166667,8.01 20.8166667,8.63333333 L20.8166667,8.63333333 L20.8166667,9.2 L22.2333333,9.2 C23.1683333,9.2 23.9333333,9.965 23.9333333,10.9 L23.9333333,10.9 L23.9333333,11.4666667 C23.9333333,11.7783333 23.6783333,12.0333333 23.3666667,12.0333333 L23.3666667,12.0333333 L8.63333333,12.0333333 C8.32166667,12.0333333 8.06666667,11.7783333 8.06666667,11.4666667 L8.06666667,11.4666667 L8.06666667,10.9 C8.06666667,9.965 8.83166667,9.2 9.76666667,9.2 L9.76666667,9.2 L11.1833333,9.2 L11.1833333,8.63333333 C11.1833333,8.01 11.6933333,7.5 12.3166667,7.5 C12.94,7.5 13.45,8.01 13.45,8.63333333 L13.45,8.63333333 L13.45,9.2 L18.55,9.2 L18.55,8.63333333 C18.55,8.01 19.06,7.5 19.6833333,7.5 Z" id="icon" fill="#FFFFFF"></path>
                    </g>
                </g>
            </g>
        </g>
    </g>
</svg>