<?xml version="1.0" encoding="UTF-8"?>
<svg width="40px" height="40px" viewBox="0 0 40 40" version="1.1" xmlns="http://www.w3.org/2000/svg" xmlns:xlink="http://www.w3.org/1999/xlink">
    <title>pasivo-cuenta-de-ahorro</title>
    <defs>
        <rect id="path-1" x="0" y="0" width="40" height="40" rx="20"></rect>
    </defs>
    <g id="Page-1" stroke="none" stroke-width="1" fill="none" fill-rule="evenodd">
        <g id="Consumo---Portal-Accesos-directos" transform="translate(-431.000000, -370.000000)">
            <g id="Shortcuts" transform="translate(371.000000, 330.000000)">
                <g id="Buttons" transform="translate(20.000000, 20.000000)">
                    <g id="pasivo-cuenta-de-ahorro" transform="translate(40.000000, 20.000000)">
                        <mask id="mask-2" fill="white">
                            <use xlink:href="#path-1"></use>
                        </mask>
                        <use id="Icon-Background" fill="#4BC076" xlink:href="#path-1"></use>
                        <g id="new_custom17" mask="url(#mask-2)" fill="#FFFFFF" fill-rule="nonzero">
                            <g transform="translate(12.000000, 9.000000)">
                                <path d="M6.03947368,3.17631579 C6.12894737,3.44473684 6.39736842,3.57894737 6.66578947,3.57894737 L10.2894737,3.57894737 C10.5578947,3.57894737 10.8263158,3.44473684 10.9157895,3.17631579 L12.3473684,0.536842105 C12.4368421,0.268421053 12.2578947,0.0447368421 12.0342105,0.0447368421 L8.5,0.0447368421 L5.01052632,0.0447368421 C4.74210526,0.0447368421 4.56315789,0.313157895 4.69736842,0.536842105 L6.03947368,3.17631579 Z" id="Path"></path>
                                <path d="M10.6026316,5.72631579 L6.39736842,5.72631579 C2.86315789,5.72631579 0,8.63421053 0,12.1684211 L0,19.3263158 C0,20.4894737 0.939473684,21.4736842 2.14736842,21.4736842 L14.8526316,21.4736842 C16.0157895,21.4736842 17,20.4894737 17,19.3263158 L17,12.1684211 C17,8.63421053 14.0921053,5.72631579 10.6026316,5.72631579 Z M9.57368421,17.7605263 L9.57368421,18.9684211 C9.57368421,19.1921053 9.35,19.3263158 9.12631579,19.3263158 L7.69473684,19.3263158 C7.47105263,19.3263158 7.42631579,19.1921053 7.42631579,18.9684211 L7.42631579,17.8052632 C6.35263158,17.5815789 5.45789474,17.1342105 5.23421053,16.9105263 C4.96578947,16.6421053 4.87631579,16.4184211 5.1,16.1052632 L5.54736842,15.3894737 C5.63684211,15.2105263 5.86052632,15.1210526 6.08421053,15.1210526 C6.21842105,15.1210526 6.35263158,15.1657895 6.44210526,15.2105263 L6.48684211,15.2105263 C7.20263158,15.6578947 7.82894737,15.8368421 8.27631579,15.8368421 C8.76842105,15.8368421 9.17105263,15.5684211 9.17105263,15.3 C9.17105263,15.0763158 9.03684211,14.7184211 7.69473684,14.2710526 C6.48684211,13.8236842 5.01052632,13.1078947 5.01052632,11.4526316 C5.01052632,10.4684211 5.63684211,9.35 7.42631579,8.99210526 L7.42631579,7.91842105 C7.42631579,7.69473684 7.51578947,7.56052632 7.69473684,7.56052632 L9.12631579,7.56052632 C9.35,7.56052632 9.57368421,7.69473684 9.57368421,7.91842105 L9.57368421,8.94736842 C10.2894737,9.12631579 11.05,9.48421053 11.3184211,9.66315789 C11.4526316,9.75263158 11.5421053,9.93157895 11.5868421,10.1105263 C11.6315789,10.2894737 11.5421053,10.4684211 11.4526316,10.5578947 L10.9157895,11.1842105 C10.7815789,11.3631579 10.5131579,11.4973684 10.3342105,11.4973684 C10.2447368,11.4973684 10.1105263,11.4526316 10.0210526,11.4078947 C9.30526316,11.0052632 8.72368421,10.7815789 8.32105263,10.7815789 C7.73947368,10.7815789 7.47105263,11.05 7.47105263,11.2289474 C7.47105263,11.4973684 7.60526316,11.7657895 8.81315789,12.2131579 C10.2894737,12.7052632 11.9447368,13.5105263 11.9447368,15.2105263 C11.9,16.4184211 10.9605263,17.4473684 9.57368421,17.7605263 Z" id="Shape"></path>
                            </g>
                        </g>
                    </g>
                </g>
            </g>
        </g>
    </g>
</svg>