<?xml version="1.0" encoding="UTF-8"?>
<svg width="16px" height="16px" viewBox="0 0 16 16" version="1.1" xmlns="http://www.w3.org/2000/svg" xmlns:xlink="http://www.w3.org/1999/xlink">
    <title>icon</title>
    <g id="Page-2" stroke="none" stroke-width="1" fill="none" fill-rule="evenodd">
        <g id="BDN-Telerevi-1" transform="translate(-147.000000, -825.000000)" fill="#0070D2" fill-rule="nonzero">
            <g id="Columna-IZQ" transform="translate(10.000000, 323.000000)">
                <g id="text" transform="translate(95.000000, 350.000000)">
                    <g id="1" transform="translate(40.000000, 133.000000)">
                        <path d="M10,19 C12.1473334,19 14.1636667,19.8393333 15.6770001,21.3633333 C15.9363334,21.6246667 15.9350001,22.0466667 15.6736667,22.306 C15.4123334,22.5656667 14.9900001,22.5643333 14.7310001,22.3026667 C13.4696667,21.0326667 11.7896667,20.3333333 10,20.3333333 C6.32400002,20.3333333 3.33333334,23.324 3.33333334,27 C3.33333334,30.676 6.32400002,33.6666667 10,33.6666667 C13.676,33.6666667 16.6666667,30.676 16.6666667,27 C16.6666667,26.632 16.9653334,26.3333334 17.3333334,26.3333334 C17.7013334,26.3333334 18,26.632 18,27 C18,31.4113334 14.4113334,35 10,35 C5.58866668,35 2,31.4113334 2,27 C2,22.5886667 5.58866668,19 10,19 Z M12.5286667,24.862 C12.7886667,24.6016667 13.2113334,24.6016667 13.4713334,24.862 C13.7316667,25.1223334 13.7316667,25.5443334 13.4713334,25.8046667 L13.4713334,25.8046667 L10.138,29.138 C10.008,29.2683334 9.83733337,29.3333334 9.6666667,29.3333334 C9.49600003,29.3333334 9.32533336,29.2683334 9.19533336,29.138 L9.19533336,29.138 L7.52866669,27.4713334 C7.26833336,27.211 7.26833336,26.789 7.52866669,26.5286667 C7.78866669,26.2683334 8.21133336,26.2683334 8.47133336,26.5286667 L8.47133336,26.5286667 L9.6666667,27.7236667 Z" id="icon"></path>
                    </g>
                </g>
            </g>
        </g>
    </g>
</svg>