<?xml version="1.0" encoding="UTF-8"?>
<svg width="20px" height="20px" viewBox="0 0 20 20" version="1.1" xmlns="http://www.w3.org/2000/svg" xmlns:xlink="http://www.w3.org/1999/xlink">
    <title>tasks-icon</title>
    <g id="Page-1" stroke="none" stroke-width="1" fill="none" fill-rule="evenodd">
        <g id="tasks-icon">
            <rect id="background" fill="#4BC076" x="0" y="0" width="20" height="20" rx="4"></rect>
            <path d="M6.22222222,14.3680556 C6.48194444,14.3680556 6.69444444,14.5805556 6.69444444,14.8402778 L6.69444444,15.7847222 C6.69444444,16.0444444 6.48194444,16.2569444 6.22222222,16.2569444 L5.27777778,16.2569444 C5.01805556,16.2569444 4.80555556,16.0444444 4.80555556,15.7847222 L4.80555556,14.8402778 C4.80555556,14.5805556 5.01805556,14.3680556 5.27777778,14.3680556 L6.22222222,14.3680556 Z M16.6111111,14.3680556 C16.8708333,14.3680556 17.0833333,14.5805556 17.0833333,14.8402778 L17.0833333,15.7847222 C17.0833333,16.0444444 16.8708333,16.2569444 16.6111111,16.2569444 L9.05555556,16.2569444 C8.79583333,16.2569444 8.58333333,16.0444444 8.58333333,15.7847222 L8.58333333,14.8402778 C8.58333333,14.5805556 8.79583333,14.3680556 9.05555556,14.3680556 L16.6111111,14.3680556 Z M16.6111111,10.1180556 C16.8708333,10.1180556 17.0833333,10.3305556 17.0833333,10.5902778 L17.0833333,11.5347222 C17.0833333,11.7944444 16.8708333,12.0069444 16.6111111,12.0069444 L9.05555556,12.0069444 C8.79583333,12.0069444 8.58333333,11.7944444 8.58333333,11.5347222 L8.58333333,10.5902778 C8.58333333,10.3305556 8.79583333,10.1180556 9.05555556,10.1180556 L16.6111111,10.1180556 Z M6.22222222,10.1180556 C6.48194444,10.1180556 6.69444444,10.3305556 6.69444444,10.5902778 L6.69444444,11.5347222 C6.69444444,11.7944444 6.48194444,12.0069444 6.22222222,12.0069444 L5.27777778,12.0069444 C5.01805556,12.0069444 4.80555556,11.7944444 4.80555556,11.5347222 L4.80555556,10.5902778 C4.80555556,10.3305556 5.01805556,10.1180556 5.27777778,10.1180556 L6.22222222,10.1180556 Z M8.44166667,3.88472222 C8.58333333,3.74305556 8.79583333,3.74305556 8.9375,3.88472222 L8.9375,3.88472222 L9.43333333,4.38055556 C9.55138889,4.52222222 9.55138889,4.75833333 9.43333333,4.87638889 L9.43333333,4.87638889 L5.82083333,8.48888889 C5.67916667,8.63055556 5.51388889,8.70138889 5.325,8.70138889 C5.15972222,8.70138889 4.97083333,8.63055556 4.82916667,8.48888889 L4.82916667,8.48888889 L3.08194444,6.74166667 C2.94027778,6.6 2.94027778,6.3875 3.08194444,6.24583333 L3.08194444,6.24583333 L3.57777778,5.75 C3.71944444,5.60833333 3.93194444,5.60833333 4.07361111,5.75 L4.07361111,5.75 L5.325,7.00138889 Z M16.6111111,5.86805556 C16.8708333,5.86805556 17.0833333,6.08055556 17.0833333,6.34027778 L17.0833333,7.28472222 C17.0833333,7.54444444 16.8708333,7.75694444 16.6111111,7.75694444 L10.4722222,7.75694444 C10.2125,7.75694444 10,7.54444444 10,7.28472222 L10,6.34027778 C10,6.08055556 10.2125,5.86805556 10.4722222,5.86805556 L16.6111111,5.86805556 Z" id="icon" fill="#FFFFFF" fill-rule="nonzero"></path>
        </g>
    </g>
</svg>