<?xml version="1.0" encoding="UTF-8"?>
<svg width="32px" height="32px" viewBox="0 0 32 32" version="1.1" xmlns="http://www.w3.org/2000/svg" xmlns:xlink="http://www.w3.org/1999/xlink">
    <title>icon-casos-ingresados</title>
    <g id="Page-1" stroke="none" stroke-width="1" fill="none" fill-rule="evenodd">
        <g id="icon-casos-ingresados">
            <circle id="background" fill="#F3CF5B" cx="16" cy="16" r="16"></circle>
            <g id="Group" transform="translate(4.000000, 4.000000)" fill="#FFFFFF">
                <g id="casos" transform="translate(3.000000, 3.000000)">
                    <path d="M15.8,5.03333333 C16.735,5.03333333 17.5,5.79833333 17.5,6.73333333 L17.5,6.73333333 L17.5,15.8 C17.5,16.735 16.735,17.5 15.8,17.5 L15.8,17.5 L2.2,17.5 C1.265,17.5 0.5,16.735 0.5,15.8 L0.5,15.8 L0.5,6.73333333 C0.5,5.79833333 1.265,5.03333333 2.2,5.03333333 L2.2,5.03333333 Z M10.9833333,0.5 C11.9183333,0.5 12.6833333,1.265 12.6833333,2.2 L12.6833333,2.2 L12.6833333,3.05 C12.6833333,3.22 12.57,3.33333333 12.4,3.33333333 L12.4,3.33333333 L11.2666667,3.33333333 C11.0966667,3.33333333 10.9833333,3.22 10.9833333,3.05 L10.9833333,3.05 L10.9833333,2.2 L7.01666667,2.2 L7.01666667,3.05 C7.01666667,3.22 6.90333333,3.33333333 6.73333333,3.33333333 L6.73333333,3.33333333 L5.6,3.33333333 C5.43,3.33333333 5.31666667,3.22 5.31666667,3.05 L5.31666667,3.05 L5.31666667,2.2 C5.31666667,1.265 6.08166667,0.5 7.01666667,0.5 L7.01666667,0.5 Z" id="icon"></path>
                </g>
            </g>
        </g>
    </g>
</svg>