<?xml version="1.0" encoding="UTF-8"?>
<svg width="40px" height="40px" viewBox="0 0 40 40" version="1.1" xmlns="http://www.w3.org/2000/svg" xmlns:xlink="http://www.w3.org/1999/xlink">
    <title>activos-credito-efectivo</title>
    <defs>
        <rect id="path-1" x="0" y="0" width="40" height="40" rx="20"></rect>
    </defs>
    <g id="Page-1" stroke="none" stroke-width="1" fill="none" fill-rule="evenodd">
        <g id="Consumo---Portal-Accesos-directos" transform="translate(-561.000000, -370.000000)">
            <g id="Shortcuts" transform="translate(371.000000, 330.000000)">
                <g id="Buttons" transform="translate(20.000000, 20.000000)">
                    <g id="Activos-Crédito-Efectivo" transform="translate(130.000000, 0.000000)">
                        <g id="activos-credito-efectivo" transform="translate(40.000000, 20.000000)">
                            <mask id="mask-2" fill="white">
                                <use xlink:href="#path-1"></use>
                            </mask>
                            <use id="Icon-Background" fill="#F36E83" xlink:href="#path-1"></use>
                            <g id="Group" mask="url(#mask-2)">
                                <g transform="translate(8.000000, 8.000000)" id="c/ic_card_credit_r">
                                    <path d="M21,4 C21.5522847,4 22,4.44771525 22,5 L22,19 C22,19.5522847 21.5522847,20 21,20 L3,20 C2.44771525,20 2,19.5522847 2,19 L2,5 C2,4.44771525 2.44771525,4 3,4 L21,4 Z M20,11 L4,11 L4,18 L20,18 L20,11 Z M8,15 C8.55228475,15 9,15.4477153 9,16 C9,16.5522847 8.55228475,17 8,17 L6,17 C5.44771525,17 5,16.5522847 5,16 C5,15.4477153 5.44771525,15 6,15 L8,15 Z M20,6 L4,6 L4,9 L20,9 L20,6 Z" id="color🎨" fill="#FFFFFF"></path>
                                </g>
                            </g>
                        </g>
                    </g>
                </g>
            </g>
        </g>
    </g>
</svg>