<?xml version="1.0" encoding="UTF-8"?>
<svg width="20px" height="20px" viewBox="0 0 20 20" version="1.1" xmlns="http://www.w3.org/2000/svg" xmlns:xlink="http://www.w3.org/1999/xlink">
    <title>opportunity-icon</title>
    <g id="Page-1" stroke="none" stroke-width="1" fill="none" fill-rule="evenodd">
        <g id="opportunity-icon">
            <rect id="background" fill="#FCB95B" x="0" y="0" width="20" height="20" rx="4"></rect>
            <path d="M14.6705729,14.4270833 C14.8919271,14.4270833 15.0911458,14.6263021 15.0911458,14.8476562 L15.0911458,14.8476562 L15.0911458,14.8697917 C15.0911458,15.6002604 14.4934896,16.1979167 13.7630208,16.1979167 L13.7630208,16.1979167 L6.23697917,16.1979167 C5.50651042,16.1979167 4.90885417,15.6002604 4.90885417,14.8697917 L4.90885417,14.8697917 L4.90885417,14.8476562 C4.90885417,14.6263021 5.10807292,14.4270833 5.32942708,14.4270833 L5.32942708,14.4270833 Z M10,3.80208333 C10.7304688,3.80208333 11.328125,4.39973958 11.328125,5.13020833 C11.328125,5.70572917 10.9739583,6.17057292 10.4869792,6.36979167 C10.4427083,6.546875 10.4427083,6.72395833 10.4427083,6.92317708 C10.5091146,8.09635417 11.4609375,9.04817708 12.6341146,9.11458333 C13.6523438,9.15885417 14.515625,8.56119792 14.8919271,7.69791667 C14.6041667,7.45442708 14.4270833,7.078125 14.4270833,6.6796875 C14.4270833,5.94921875 15.0247396,5.3515625 15.7552083,5.3515625 C16.4856771,5.3515625 17.0833333,5.94921875 17.0833333,6.6796875 C17.0833333,7.41015625 16.4856771,8.0078125 15.7552083,8.0078125 L15.7552083,8.0078125 L15.1354167,12.7447917 C15.0911458,12.9440104 14.9140625,13.0989583 14.7148438,13.0989583 L14.7148438,13.0989583 L5.28515625,13.0989583 C5.06380208,13.0989583 4.88671875,12.9440104 4.86458333,12.7447917 L4.86458333,12.7447917 L4.24479167,8.0078125 L4.24479167,8.0078125 L4.10949866,8.0009222 C3.44195048,7.93258667 2.91666667,7.36450195 2.91666667,6.6796875 C2.91666667,5.94921875 3.51432292,5.3515625 4.24479167,5.3515625 C4.97526042,5.3515625 5.57291667,5.94921875 5.57291667,6.6796875 C5.57291667,7.078125 5.39583333,7.45442708 5.10807292,7.69791667 C5.46223958,8.56119792 6.34765625,9.18098958 7.36588542,9.11458333 C8.5390625,9.04817708 9.49088542,8.09635417 9.55729167,6.92317708 C9.55729167,6.72395833 9.55729167,6.546875 9.51302083,6.36979167 C9.02604167,6.17057292 8.671875,5.68359375 8.671875,5.13020833 C8.671875,4.39973958 9.26953125,3.80208333 10,3.80208333 Z" id="icon" fill="#FFFFFF" fill-rule="nonzero"></path>
        </g>
    </g>
</svg>