<?xml version="1.0" encoding="UTF-8"?>
<svg width="28px" height="28px" viewBox="0 0 28 28" version="1.1" xmlns="http://www.w3.org/2000/svg" xmlns:xlink="http://www.w3.org/1999/xlink">
    <title>icon-base-de-conocimiento</title>
    <g id="Page-1" stroke="none" stroke-width="1" fill="none" fill-rule="evenodd">
        <g id="icon-base-de-conocimiento" fill-rule="nonzero">
            <rect id="background" fill="#02CDC0" x="0" y="0" width="28" height="28" rx="4"></rect>
            <path d="M7.85714286,17.832 L12.2857143,17.832 C12.7142857,17.832 13,17.424 13,17.152 L13,7.36 C13,6.68 12.2857143,6 11.5714286,6 L8,6 C7.42857143,6 7.14285714,6.408 7.14285714,6.816 L7.14285714,17.152 C7.14285714,17.424 7.42857143,17.832 7.85714286,17.832 Z M22.8571429,8.04 L22.8571429,18.376 C22.8571429,19.192 22.2857143,19.736 21.5714286,19.736 L6.42857143,19.736 C5.71428571,19.736 5.14285714,19.192 5.14285714,18.376 L5.14285714,8.04 C4,8.04 3,8.856 3,9.944 L3,19.736 C3,20.824 4,21.64 5.14285714,21.64 L11.5714286,21.64 C12,21.64 12.2857143,22.048 12.2857143,22.32 C12.2857143,22.592 12.5714286,23 13,23 L15,23 C15.4285714,23 15.7142857,22.728 15.7142857,22.32 C15.7142857,21.912 16,21.64 16.4285714,21.64 L22.8571429,21.64 C24,21.64 25,20.824 25,19.736 L25,9.944 C25,8.856 24,8.04 22.8571429,8.04 L22.8571429,8.04 Z M15.7142857,17.832 L20,17.832 C20.5714286,17.832 20.8571429,17.424 20.8571429,17.016 L20.8571429,6.68 C20.8571429,6.272 20.5714286,6 20.1428571,6 L16.4285714,6 C15.7142857,6 15,6.68 15,7.36 L15,17.152 C15,17.424 15.2857143,17.832 15.7142857,17.832 L15.7142857,17.832 Z" id="Combined-Shape" fill="#FFFFFF"></path>
        </g>
    </g>
</svg>