<?xml version="1.0" encoding="UTF-8"?>
<svg width="28px" height="28px" viewBox="0 0 28 28" version="1.1" xmlns="http://www.w3.org/2000/svg" xmlns:xlink="http://www.w3.org/1999/xlink">
    <title>icon-chatter</title>
    <g id="Page-1" stroke="none" stroke-width="1" fill="none" fill-rule="evenodd">
        <g id="icon-chatter" fill-rule="nonzero">
            <rect id="background" fill="#6CA1E9" x="0" y="0" width="28" height="28" rx="4"></rect>
            <path d="M23.9911303,16.2341178 C23.8922082,16.0387418 23.8922082,15.8433659 23.9911303,15.7456779 C24.5846628,14.6711101 24.9803511,13.4988543 24.9803511,12.2289106 C24.9803511,8.22370337 21.5180782,5 17.1655066,5 C15.187065,5 13.4064675,5.78150385 12.0215584,6.95375962 C16.6708962,7.44219952 20.4299353,11.2520308 20.4299353,15.8433659 C20.4299353,16.9179337 20.1331691,18.0901894 19.7374808,19.0670692 C20.2320912,18.8716933 20.7267016,18.6763173 21.221312,18.3832534 C21.4191562,18.2855654 21.6170003,18.2855654 21.7159224,18.3832534 L24.5846628,19.4578212 C24.782507,19.5555091 25.0792732,19.2624452 24.9803511,19.0670692 L23.9911303,16.2341178 L23.9911303,16.2341178 Z M10.8344934,8.61445529 C6.48192175,8.61445529 3.01964887,11.8381587 3.01964887,15.8433659 C3.01964887,17.1133096 3.4153372,18.2855654 4.0088697,19.2624452 C4.10779178,19.4578212 4.10779178,19.6531971 4.0088697,19.8485731 L3.01964887,22.5838365 C2.92072679,22.8769005 3.21749304,23.0722764 3.4153372,22.9745885 L6.28407759,21.9000207 C6.38299967,21.9000207 6.58084383,21.9000207 6.778688,21.9977087 C7.96575299,22.6815245 9.35066214,22.9745885 10.8344934,22.9745885 C15.0881429,22.9745885 18.5504158,19.7508851 18.5504158,15.7456779 C18.5504158,11.8381587 15.0881429,8.61445529 10.8344934,8.61445529 L10.8344934,8.61445529 Z" id="Combined-Shape" fill="#FFFFFF"></path>
        </g>
    </g>
</svg>