<?xml version="1.0" encoding="UTF-8"?>
<svg width="24px" height="24px" viewBox="0 0 24 24" version="1.1" xmlns="http://www.w3.org/2000/svg" xmlns:xlink="http://www.w3.org/1999/xlink">
    <title>icon-detalle-de-cuenta</title>
    <g id="Page-1" stroke="none" stroke-width="1" fill="none" fill-rule="evenodd">
        <g id="icon-detalle-de-cuenta">
            <rect id="background" fill="#7F8DE1" x="0" y="0" width="24" height="24" rx="4"></rect>
            <path d="M19.6355932,11.5389831 C19.8084746,11.5389831 20.240678,11.7118644 20.2118644,12.3169492 L20.2118644,12.3169492 L20.2118644,18.9152542 L12.720339,18.9152542 L12.720339,12.1728814 C12.720339,12.1152542 12.8067797,11.5389831 13.3542373,11.5389831 L13.3542373,11.5389831 Z M13.8728814,5.08474576 C14.0457627,5.08474576 14.4779661,5.25762712 14.4491525,5.86271186 L14.4491525,5.86271186 L14.4491525,9.20508475 C14.4491525,9.43559322 14.2186441,9.78135593 13.9016949,9.78135593 L13.9016949,9.78135593 L11.6254237,9.78135593 C10.9915254,9.78135593 10.9915254,10.4728814 10.9915254,10.4728814 L10.9915254,18.9152542 L3.5,18.9152542 L3.5,5.71864407 C3.5,5.66101695 3.58644068,5.08474576 4.13389831,5.08474576 L4.13389831,5.08474576 Z M15.3135593,16.0050847 L14.7372881,16.0050847 C14.420339,16.0050847 14.1610169,16.2644068 14.1610169,16.5813559 L14.1610169,16.5813559 L14.1610169,17.1576271 C14.1610169,17.4745763 14.420339,17.7338983 14.7372881,17.7338983 L14.7372881,17.7338983 L15.3135593,17.7338983 C15.6305085,17.7338983 15.8898305,17.4745763 15.8898305,17.1576271 L15.8898305,17.1576271 L15.8898305,16.5813559 C15.8898305,16.2644068 15.6305085,16.0050847 15.3135593,16.0050847 L15.3135593,16.0050847 Z M18.1949153,16.0050847 L17.6186441,16.0050847 C17.3016949,16.0050847 17.0423729,16.2644068 17.0423729,16.5813559 L17.0423729,16.5813559 L17.0423729,17.1576271 C17.0423729,17.4745763 17.3016949,17.7338983 17.6186441,17.7338983 L17.6186441,17.7338983 L18.1949153,17.7338983 C18.5118644,17.7338983 18.7711864,17.4745763 18.7711864,17.1576271 L18.7711864,17.1576271 L18.7711864,16.5813559 C18.7711864,16.2644068 18.5118644,16.0050847 18.1949153,16.0050847 L18.1949153,16.0050847 Z M6.09322034,15.7169492 L5.51694915,15.7169492 C5.2,15.7169492 4.94067797,15.9762712 4.94067797,16.2932203 L4.94067797,16.2932203 L4.94067797,16.8694915 C4.94067797,17.1864407 5.2,17.4457627 5.51694915,17.4457627 L5.51694915,17.4457627 L6.09322034,17.4457627 C6.41016949,17.4457627 6.66949153,17.1864407 6.66949153,16.8694915 L6.66949153,16.8694915 L6.66949153,16.2932203 C6.66949153,15.9762712 6.41016949,15.7169492 6.09322034,15.7169492 L6.09322034,15.7169492 Z M9.26271186,15.7169492 L8.68644068,15.7169492 C8.36949153,15.7169492 8.11016949,15.9762712 8.11016949,16.2932203 L8.11016949,16.2932203 L8.11016949,16.8694915 C8.11016949,17.1864407 8.36949153,17.4457627 8.68644068,17.4457627 L8.68644068,17.4457627 L9.26271186,17.4457627 C9.57966102,17.4457627 9.83898305,17.1864407 9.83898305,16.8694915 L9.83898305,16.8694915 L9.83898305,16.2932203 C9.83898305,15.9762712 9.57966102,15.7169492 9.26271186,15.7169492 L9.26271186,15.7169492 Z M15.3135593,13.0661017 L14.7372881,13.0661017 C14.420339,13.0661017 14.1610169,13.3254237 14.1610169,13.6423729 L14.1610169,13.6423729 L14.1610169,14.2186441 C14.1610169,14.5355932 14.420339,14.7949153 14.7372881,14.7949153 L14.7372881,14.7949153 L15.3135593,14.7949153 C15.6305085,14.7949153 15.8898305,14.5355932 15.8898305,14.2186441 L15.8898305,14.2186441 L15.8898305,13.6423729 C15.8898305,13.3254237 15.6305085,13.0661017 15.3135593,13.0661017 L15.3135593,13.0661017 Z M18.1949153,13.0661017 L17.6186441,13.0661017 C17.3016949,13.0661017 17.0423729,13.3254237 17.0423729,13.6423729 L17.0423729,13.6423729 L17.0423729,14.2186441 C17.0423729,14.5355932 17.3016949,14.7949153 17.6186441,14.7949153 L17.6186441,14.7949153 L18.1949153,14.7949153 C18.5118644,14.7949153 18.7711864,14.5355932 18.7711864,14.2186441 L18.7711864,14.2186441 L18.7711864,13.6423729 C18.7711864,13.3254237 18.5118644,13.0661017 18.1949153,13.0661017 L18.1949153,13.0661017 Z M6.09322034,12.7491525 L5.51694915,12.7491525 C5.2,12.7491525 4.94067797,13.0084746 4.94067797,13.3254237 L4.94067797,13.3254237 L4.94067797,13.9016949 C4.94067797,14.2186441 5.2,14.4779661 5.51694915,14.4779661 L5.51694915,14.4779661 L6.09322034,14.4779661 C6.41016949,14.4779661 6.66949153,14.2186441 6.66949153,13.9016949 L6.66949153,13.9016949 L6.66949153,13.3254237 C6.66949153,13.0084746 6.41016949,12.7491525 6.09322034,12.7491525 L6.09322034,12.7491525 Z M9.26271186,12.7491525 L8.68644068,12.7491525 C8.36949153,12.7491525 8.11016949,13.0084746 8.11016949,13.3254237 L8.11016949,13.3254237 L8.11016949,13.9016949 C8.11016949,14.2186441 8.36949153,14.4779661 8.68644068,14.4779661 L8.68644068,14.4779661 L9.26271186,14.4779661 C9.57966102,14.4779661 9.83898305,14.2186441 9.83898305,13.9016949 L9.83898305,13.9016949 L9.83898305,13.3254237 C9.83898305,13.0084746 9.57966102,12.7491525 9.26271186,12.7491525 L9.26271186,12.7491525 Z M6.09322034,9.81016949 L5.51694915,9.81016949 C5.2,9.81016949 4.94067797,10.0694915 4.94067797,10.3864407 L4.94067797,10.3864407 L4.94067797,10.9627119 C4.94067797,11.279661 5.2,11.5389831 5.51694915,11.5389831 L5.51694915,11.5389831 L6.09322034,11.5389831 C6.41016949,11.5389831 6.66949153,11.279661 6.66949153,10.9627119 L6.66949153,10.9627119 L6.66949153,10.3864407 C6.66949153,10.0694915 6.41016949,9.81016949 6.09322034,9.81016949 L6.09322034,9.81016949 Z M9.26271186,9.81016949 L8.68644068,9.81016949 C8.36949153,9.81016949 8.11016949,10.0694915 8.11016949,10.3864407 L8.11016949,10.3864407 L8.11016949,10.9627119 C8.11016949,11.279661 8.36949153,11.5389831 8.68644068,11.5389831 L8.68644068,11.5389831 L9.26271186,11.5389831 C9.57966102,11.5389831 9.83898305,11.279661 9.83898305,10.9627119 L9.83898305,10.9627119 L9.83898305,10.3864407 C9.83898305,10.0694915 9.57966102,9.81016949 9.26271186,9.81016949 L9.26271186,9.81016949 Z M6.09322034,6.87118644 L5.51694915,6.87118644 C5.2,6.87118644 4.94067797,7.13050847 4.94067797,7.44745763 L4.94067797,7.44745763 L4.94067797,8.02372881 C4.94067797,8.34067797 5.2,8.6 5.51694915,8.6 L5.51694915,8.6 L6.09322034,8.6 C6.41016949,8.6 6.66949153,8.34067797 6.66949153,8.02372881 L6.66949153,8.02372881 L6.66949153,7.44745763 C6.66949153,7.13050847 6.41016949,6.87118644 6.09322034,6.87118644 L6.09322034,6.87118644 Z M9.26271186,6.87118644 L8.68644068,6.87118644 C8.36949153,6.87118644 8.11016949,7.13050847 8.11016949,7.44745763 L8.11016949,7.44745763 L8.11016949,8.02372881 C8.11016949,8.34067797 8.36949153,8.6 8.68644068,8.6 L8.68644068,8.6 L9.26271186,8.6 C9.57966102,8.6 9.83898305,8.34067797 9.83898305,8.02372881 L9.83898305,8.02372881 L9.83898305,7.44745763 C9.83898305,7.13050847 9.57966102,6.87118644 9.26271186,6.87118644 L9.26271186,6.87118644 Z M12.4322034,6.87118644 L11.8559322,6.87118644 C11.5389831,6.87118644 11.279661,7.13050847 11.279661,7.44745763 L11.279661,7.44745763 L11.279661,8.02372881 C11.279661,8.34067797 11.5389831,8.6 11.8559322,8.6 L11.8559322,8.6 L12.4322034,8.6 C12.7491525,8.6 13.0084746,8.34067797 13.0084746,8.02372881 L13.0084746,8.02372881 L13.0084746,7.44745763 C13.0084746,7.13050847 12.7491525,6.87118644 12.4322034,6.87118644 L12.4322034,6.87118644 Z" id="icon" fill="#FFFFFF"></path>
        </g>
    </g>
</svg>