<?xml version="1.0" encoding="UTF-8"?>
<svg width="28px" height="28px" viewBox="0 0 28 28" version="1.1" xmlns="http://www.w3.org/2000/svg" xmlns:xlink="http://www.w3.org/1999/xlink">
    <title>icon-casos</title>
    <g id="Page-1" stroke="none" stroke-width="1" fill="none" fill-rule="evenodd">
        <g id="icon-casos">
            <rect id="background" fill="#F2CF5B" x="0" y="0" width="28" height="28" rx="4"></rect>
            <path d="M21.9333333,9.37222222 C23.0241667,9.37222222 23.9166667,10.2647222 23.9166667,11.3555556 L23.9166667,11.3555556 L23.9166667,21.9333333 C23.9166667,23.0241667 23.0241667,23.9166667 21.9333333,23.9166667 L21.9333333,23.9166667 L6.06666667,23.9166667 C4.97583333,23.9166667 4.08333333,23.0241667 4.08333333,21.9333333 L4.08333333,21.9333333 L4.08333333,11.3555556 C4.08333333,10.2647222 4.97583333,9.37222222 6.06666667,9.37222222 L6.06666667,9.37222222 Z M16.3138889,4.08333333 C17.4047222,4.08333333 18.2972222,4.97583333 18.2972222,6.06666667 L18.2972222,6.06666667 L18.2972222,7.05833333 C18.2972222,7.25666667 18.165,7.38888889 17.9666667,7.38888889 L17.9666667,7.38888889 L16.6444444,7.38888889 C16.4461111,7.38888889 16.3138889,7.25666667 16.3138889,7.05833333 L16.3138889,7.05833333 L16.3138889,6.06666667 L11.6861111,6.06666667 L11.6861111,7.05833333 C11.6861111,7.25666667 11.5538889,7.38888889 11.3555556,7.38888889 L11.3555556,7.38888889 L10.0333333,7.38888889 C9.835,7.38888889 9.70277778,7.25666667 9.70277778,7.05833333 L9.70277778,7.05833333 L9.70277778,6.06666667 C9.70277778,4.97583333 10.5952778,4.08333333 11.6861111,4.08333333 L11.6861111,4.08333333 Z" id="Combined-Shape" fill="#FFFFFF" fill-rule="nonzero"></path>
        </g>
    </g>
</svg>