<?xml version="1.0" encoding="UTF-8"?>
<svg width="32px" height="32px" viewBox="0 0 32 32" version="1.1" xmlns="http://www.w3.org/2000/svg" xmlns:xlink="http://www.w3.org/1999/xlink">
    <title>icon-spc</title>
    <g id="Page-1" stroke="none" stroke-width="1" fill="none" fill-rule="evenodd">
        <g id="icon-spc">
            <circle id="background" fill="#4BC076" cx="16" cy="16" r="16"></circle>
            <g id="Group" transform="translate(4.000000, 3.000000)" fill="#FFFFFF">
                <g id="spc" transform="translate(5.000000, 3.000000)">
                    <path d="M8.67166667,5.03333333 C11.4766667,5.03333333 13.8,7.32833333 13.8,10.1333333 L13.8,10.1333333 L13.8,15.8 C13.8,16.735 13.0066667,17.5 12.0716667,17.5 L12.0716667,17.5 L1.9,17.5 C0.965,17.5 0.2,16.735 0.2,15.8 L0.2,15.8 L0.2,10.1333333 C0.2,7.32833333 2.495,5.03333333 5.3,5.03333333 L5.3,5.03333333 Z M7.48166667,6.45028333 L6.34833333,6.45028333 C6.20666667,6.45028333 6.12166667,6.56361667 6.12166667,6.73361667 L6.12166667,6.73361667 L6.12166667,7.58361667 C4.705,7.86695 4.195,8.77361667 4.195,9.53861667 C4.195,10.8416667 5.385,11.4366667 6.34833333,11.7766667 C7.425,12.1447167 7.53833333,12.42805 7.53833333,12.5983333 C7.53833333,12.825 7.22666667,13.0233333 6.83,13.0233333 C6.46166667,13.0233333 5.95166667,12.85305 5.385,12.5133333 L5.385,12.5133333 L5.35666667,12.5133333 C5.27166667,12.4566667 5.18666667,12.42805 5.07333333,12.42805 C4.90333333,12.42805 4.73333333,12.5133333 4.64833333,12.655 L4.64833333,12.655 L4.28,13.2216667 C4.11,13.4766667 4.16666667,13.675 4.39333333,13.8733333 C4.59166667,14.0433333 5.3,14.4113833 6.15,14.5816667 L6.15,14.5816667 L6.15,15.5166667 C6.15,15.6866667 6.20666667,15.8 6.37666667,15.8 L6.37666667,15.8 L7.51,15.8 C7.68,15.8 7.85,15.6866667 7.85,15.5166667 L7.85,15.5166667 L7.85,14.5533333 C8.98333333,14.2983333 9.72,13.4766667 9.69166667,12.57 C9.69166667,11.2386167 8.36,10.615 7.17,10.2183333 C6.20666667,9.87833333 6.09333333,9.65166667 6.09333333,9.45333333 C6.09333333,9.31166667 6.29166667,9.085 6.77333333,9.085 C7.085,9.085 7.56666667,9.255 8.13333333,9.56666667 C8.21833333,9.595 8.30333333,9.62333333 8.38833333,9.62361667 C8.55805,9.62361667 8.75666667,9.51028333 8.86971667,9.36861667 L8.86971667,9.36861667 L9.29471667,8.85861667 C9.37971667,8.77361667 9.4361,8.63195 9.40805,8.49028333 C9.38,8.34861667 9.32305,8.20695 9.20971667,8.15028333 C9.01138333,8.00861667 8.38833333,7.72528333 7.82166667,7.58361667 L7.82166667,7.58361667 L7.82166667,6.73361667 C7.82166667,6.56361667 7.65166667,6.45028333 7.48166667,6.45028333 L7.48166667,6.45028333 Z M9.80528333,0.528333333 C10.0033333,0.528333333 10.145,0.726666667 10.06,0.925 L10.06,0.925 L8.92666667,3.02166667 C8.84166667,3.22 8.64333333,3.33333333 8.41666667,3.33333333 L8.41666667,3.33333333 L5.52666667,3.33333333 C5.3,3.33333333 5.10166667,3.22 5.01666667,3.02166667 L5.01666667,3.02166667 L3.94,0.925 C3.855,0.755 3.99666667,0.528333333 4.195,0.528333333 L4.195,0.528333333 Z" id="icon"></path>
                </g>
            </g>
        </g>
    </g>
</svg>