<?xml version="1.0" encoding="UTF-8"?>
<svg width="50px" height="50px" viewBox="0 0 50 50" version="1.1" xmlns="http://www.w3.org/2000/svg" xmlns:xlink="http://www.w3.org/1999/xlink">
    <title>icon</title>
    <g id="Page-2" stroke="none" stroke-width="1" fill="none" fill-rule="evenodd">
        <g id="BDN-Telerevi-1" transform="translate(-650.000000, -673.000000)">
            <g id="Columna-IZQ" transform="translate(10.000000, 323.000000)">
                <g id="text" transform="translate(95.000000, 350.000000)">
                    <g id="2" transform="translate(393.000000, 0.000000)">
                        <g id="icon" transform="translate(152.000000, 0.000000)">
                            <rect id="background" fill="#0070D2" x="0" y="0" width="50" height="50" rx="25"></rect>
                            <path d="M28.7241379,18.8333333 C30.0896552,18.8333333 31.2068966,19.9583333 31.2068966,21.3333333 L31.2068966,21.3333333 L31.2068966,35.5 C31.2068966,36.875 30.0896552,38 28.7241379,38 L28.7241379,38 L15.4827586,38 C14.1172414,38 13,36.875 13,35.5 L13,35.5 L13,21.3333333 C13,19.9583333 14.1172414,18.8333333 15.4827586,18.8333333 L15.4827586,18.8333333 Z M17.9655172,31.3333333 L17.137931,31.3333333 C16.6827586,31.3333333 16.3103448,31.7083333 16.3103448,32.1666667 L16.3103448,32.1666667 L16.3103448,33 C16.3103448,33.4583333 16.6827586,33.8333333 17.137931,33.8333333 L17.137931,33.8333333 L17.9655172,33.8333333 C18.4206897,33.8333333 18.7931034,33.4583333 18.7931034,33 L18.7931034,33 L18.7931034,32.1666667 C18.7931034,31.7083333 18.4206897,31.3333333 17.9655172,31.3333333 L17.9655172,31.3333333 Z M27.0689655,31.3333333 L21.2758621,31.3333333 C20.8206897,31.3333333 20.4482759,31.7083333 20.4482759,32.1666667 L20.4482759,32.1666667 L20.4482759,33 C20.4482759,33.4583333 20.8206897,33.8333333 21.2758621,33.8333333 L21.2758621,33.8333333 L27.0689655,33.8333333 C27.5241379,33.8333333 27.8965517,33.4583333 27.8965517,33 L27.8965517,33 L27.8965517,32.1666667 C27.8965517,31.7083333 27.5241379,31.3333333 27.0689655,31.3333333 L27.0689655,31.3333333 Z M34.5172414,13 C35.8827586,13 37,14.125 37,15.5 L37,15.5 L37,29.25 C37,30.875 35.6758621,32.1666667 34.1034483,32.1666667 L34.1034483,32.1666667 L34.0143858,32.1573079 C33.8163793,32.1145833 33.6896552,31.9322917 33.6896552,31.75 L33.6896552,31.75 L33.6896552,18.8333333 C33.6896552,17.4583333 32.5724138,16.3333333 31.2068966,16.3333333 L31.2068966,16.3333333 L19.2068966,16.3333333 C18.9586207,16.3333333 18.7931034,16.125 18.7931034,15.9166667 L18.7931034,15.9166667 L18.7931034,15.5 C18.7931034,14.125 19.9103448,13 21.2758621,13 L21.2758621,13 Z M17.9655172,27.1666667 L17.137931,27.1666667 C16.6827586,27.1666667 16.3103448,27.5416667 16.3103448,28 L16.3103448,28 L16.3103448,28.8333333 C16.3103448,29.2916667 16.6827586,29.6666667 17.137931,29.6666667 L17.137931,29.6666667 L17.9655172,29.6666667 C18.4206897,29.6666667 18.7931034,29.2916667 18.7931034,28.8333333 L18.7931034,28.8333333 L18.7931034,28 C18.7931034,27.5416667 18.4206897,27.1666667 17.9655172,27.1666667 L17.9655172,27.1666667 Z M27.0689655,27.1666667 L21.2758621,27.1666667 C20.8206897,27.1666667 20.4482759,27.5416667 20.4482759,28 L20.4482759,28 L20.4482759,28.8333333 C20.4482759,29.2916667 20.8206897,29.6666667 21.2758621,29.6666667 L21.2758621,29.6666667 L27.0689655,29.6666667 C27.5241379,29.6666667 27.8965517,29.2916667 27.8965517,28.8333333 L27.8965517,28.8333333 L27.8965517,28 C27.8965517,27.5416667 27.5241379,27.1666667 27.0689655,27.1666667 L27.0689655,27.1666667 Z M17.9655172,23 L17.137931,23 C16.6827586,23 16.3103448,23.375 16.3103448,23.8333333 L16.3103448,23.8333333 L16.3103448,24.6666667 C16.3103448,25.125 16.6827586,25.5 17.137931,25.5 L17.137931,25.5 L17.9655172,25.5 C18.4206897,25.5 18.7931034,25.125 18.7931034,24.6666667 L18.7931034,24.6666667 L18.7931034,23.8333333 C18.7931034,23.375 18.4206897,23 17.9655172,23 L17.9655172,23 Z M27.0689655,23 L21.2758621,23 C20.8206897,23 20.4482759,23.375 20.4482759,23.8333333 L20.4482759,23.8333333 L20.4482759,24.6666667 C20.4482759,25.125 20.8206897,25.5 21.2758621,25.5 L21.2758621,25.5 L27.0689655,25.5 C27.5241379,25.5 27.8965517,25.125 27.8965517,24.6666667 L27.8965517,24.6666667 L27.8965517,23.8333333 C27.8965517,23.375 27.5241379,23 27.0689655,23 L27.0689655,23 Z" fill="#FFFFFF" fill-rule="nonzero"></path>
                        </g>
                    </g>
                </g>
            </g>
        </g>
    </g>
</svg>