<?xml version="1.0" encoding="UTF-8"?>
<svg width="262px" height="65px" viewBox="0 0 262 65" version="1.1" xmlns="http://www.w3.org/2000/svg" xmlns:xlink="http://www.w3.org/1999/xlink">
    <title>counter-clouds</title>
    <g id="BDN-REVI-360---Desktop" stroke="none" stroke-width="1" fill="none" fill-rule="evenodd">
        <g id="BDN-REVI-360-V4-1" transform="translate(-966.000000, -469.000000)" fill-rule="nonzero">
            <g id="DER" transform="translate(966.000000, 377.000000)">
                <g id="component/header/header_counter" transform="translate(0.000000, 85.000000)">
                    <g id="counter-clouds" transform="translate(0.000000, 7.000000)">
                        <path d="M-5.68434189e-14,8.52961253 C14,0.031612529 18.031,10.6526125 18.031,10.6526125 C18.031,10.6526125 21.451,4.34361253 28.965,8.52961253 C32.186,5.06361253 39.877,1.08061253 51.513,6.89461253 C63.529,15.2646125 56.727,27.7876125 56.727,27.7876125 C56.727,27.7876125 68.619,13.4436125 80.327,27.7876125 C82.897,22.1436125 86.127,17.0876125 93.881,17.9356125 C103.656,18.6636125 103.891,30.2886125 103.891,30.2886125 C103.891,30.2886125 103.751,-1.13338747 135.133,0.031612529 C163.119,1.41561253 158.386,24.1926125 158.386,24.1926125 C158.386,24.1926125 170.272,17.5786125 173.725,30.2926125 C175.877,29.3776125 189.152,23.5196125 191.353,41.3836125 C195.493,35.4496125 197.086,30.3046125 209.588,31.7646125 C223.366,33.3066125 223.224,46.6236125 223.224,46.6236125 C223.224,46.6236125 231.934,37.0026125 238.013,46.6236125 C244.428,43.6076125 261.479492,43.6076125 261.479492,65.0006125 C241.036922,65.0006125 -5.68434189e-14,65.0006125 -5.68434189e-14,65.0006125 C-5.68434189e-14,43.6672792 -5.68434189e-14,24.8436125 -5.68434189e-14,8.52961253 Z" id="2" fill="#C9E5FD" opacity="0.45"></path>
                        <path d="M0,25.7040191 C0,25.7040191 8.244,12.8927464 22.612,18.3557464 C36.98,23.8187464 32.445,41.6557464 32.445,41.6557464 C32.445,41.6557464 38.876,37.2917464 45.879,39.4817464 C52.882,41.6717464 52.035,50.9437464 52.035,50.9437464 C52.035,50.9437464 58.335,48.1437464 63.429,54.4607464 C68.523,60.7777464 65.685,63.5607464 65.685,63.5607464 C65.685,63.5607464 72.299,52.7017464 87.23,58.7897464 C113.476562,43.9542855 125.454102,64.9767464 125.454102,64.9767464 L0,64.9767464 L0,25.7040191 Z" id="1" fill="#E0F1FF" opacity="0.749"></path>
                    </g>
                </g>
            </g>
        </g>
    </g>
</svg>