<svg id="Layer_1" data-name="Layer 1" xmlns="http://www.w3.org/2000/svg" viewBox="0 0 110 19.11"><defs><style>.cls-1{fill:#adadad;}.cls-2{fill:#657672;}.cls-3{fill:#a4aba9;}.cls-4{fill:#fff;}.cls-5{fill:#e17c3a;}.cls-6{fill:#644422;}.cls-7{fill:#dbe4e4;}.cls-8{fill:#c77039;}.cls-9{fill:#bdc6c5;}.cls-10{fill:#bd6c37;}.cls-11{fill:#ab6435;}.cls-12{fill:#627675;}.cls-13{fill:#99aeae;}.cls-14{fill:#935a2f;}.cls-15{fill:#8da4a5;}.cls-16{fill:#89572d;}.cls-17{fill:#86542c;}.cls-18{fill:#80522a;}.cls-19{fill:#657670;}</style></defs><path class="cls-1" d="M385,302.42v1.93h2.29v.49H385v2.31h-.56v-5.23h3.25v.5Z" transform="translate(-365.94 -288.08)"/><path class="cls-1" d="M390.6,306.78a1.39,1.39,0,0,1-1,.41,1.37,1.37,0,0,1-1-.41,2.58,2.58,0,0,1,0-2.88,1.41,1.41,0,0,1,1-.41,1.43,1.43,0,0,1,1,.41,2.58,2.58,0,0,1,0,2.88Zm-.38-2.55a.88.88,0,0,0-.66-.27.89.89,0,0,0-.65.27,2.29,2.29,0,0,0,0,2.23,1,1,0,0,0,1.31,0,1.56,1.56,0,0,0,.29-1.12A1.52,1.52,0,0,0,390.22,304.23Z" transform="translate(-365.94 -288.08)"/><path class="cls-1" d="M394.12,307.15v-2.22a.9.9,0,1,0-1.79,0v2.22h-.53v-3.61h.53v.39a1.32,1.32,0,0,1,1-.44,1.25,1.25,0,0,1,.92.34,1.33,1.33,0,0,1,.38,1v2.31Z" transform="translate(-365.94 -288.08)"/><path class="cls-1" d="M397.72,307.15v-.43a1.15,1.15,0,0,1-1,.47,1.28,1.28,0,0,1-.89-.31,2.19,2.19,0,0,1-.44-1.54,2.15,2.15,0,0,1,.44-1.53,1.28,1.28,0,0,1,.89-.32,1.17,1.17,0,0,1,1,.47v-2h.52v5.23Zm-.91-3.19c-.79,0-.91.68-.91,1.38s.12,1.38.91,1.38.91-.67.91-1.38S397.6,304,396.81,304Z" transform="translate(-365.94 -288.08)"/><path class="cls-1" d="M401.52,306.78a1.37,1.37,0,0,1-1,.41,1.39,1.39,0,0,1-1-.41,2.58,2.58,0,0,1,0-2.88,1.43,1.43,0,0,1,1-.41,1.41,1.41,0,0,1,1,.41,2.58,2.58,0,0,1,0,2.88Zm-.37-2.55a.91.91,0,0,0-.66-.27.9.9,0,0,0-.66.27,2.29,2.29,0,0,0,0,2.23.89.89,0,0,0,.66.26.9.9,0,0,0,.66-.26,1.6,1.6,0,0,0,.28-1.12A1.56,1.56,0,0,0,401.15,304.23Z" transform="translate(-365.94 -288.08)"/><path class="cls-1" d="M403.86,307.19a2,2,0,0,1-1.48-.52l.35-.35a1.52,1.52,0,0,0,1.13.42c.6,0,1-.21,1-.64s-.18-.49-.6-.53l-.6-.05c-.7-.06-1.08-.37-1.08-1s.55-1.06,1.33-1.06a2.07,2.07,0,0,1,1.3.39l-.34.35a1.55,1.55,0,0,0-1-.29c-.52,0-.8.22-.8.6s.19.48.64.52l.57.06c.63.05,1.06.29,1.06,1S404.75,307.19,403.86,307.19Z" transform="translate(-365.94 -288.08)"/><path class="cls-2" d="M384.92,294.77a5.89,5.89,0,0,0,.09,1.08,2,2,0,0,0,.31.82,1.47,1.47,0,0,0,.65.52,2.68,2.68,0,0,0,1.07.18,2.93,2.93,0,0,0,.83-.11,1.45,1.45,0,0,0,.68-.46l.77.72a2.63,2.63,0,0,1-1,.7,3.41,3.41,0,0,1-1.24.22,3.78,3.78,0,0,1-1.51-.27,2.7,2.7,0,0,1-1-.74,3.3,3.3,0,0,1-.59-1.15,5.74,5.74,0,0,1-.18-1.49v-.38a4.32,4.32,0,0,1,.21-1.39,2.71,2.71,0,0,1,1.69-1.7,4.09,4.09,0,0,1,1.41-.22,3.63,3.63,0,0,1,1.22.2,2.79,2.79,0,0,1,1,.66l-.78.79a1.72,1.72,0,0,0-.67-.45,2.47,2.47,0,0,0-.81-.12,2,2,0,0,0-1.6.57,2.43,2.43,0,0,0-.52,1.68" transform="translate(-365.94 -288.08)"/><path class="cls-2" d="M392.79,295.67a.63.63,0,0,0-.28-.2.89.89,0,0,0-.35-.06h-.68v2.91h-1.15v-7.1h3.35a2.49,2.49,0,0,1,.83.14,1.74,1.74,0,0,1,.64.42,1.9,1.9,0,0,1,.43.64,2.19,2.19,0,0,1,.15.83,2.38,2.38,0,0,1-.46,1.51,1.79,1.79,0,0,1-1.32.65l1.34,1.7a.88.88,0,0,0,.3.27,1,1,0,0,0,.39.06v.88a1.23,1.23,0,0,1-.25.08.82.82,0,0,1-.26,0,.85.85,0,0,1-.56-.21,2.78,2.78,0,0,1-.41-.44m-3-3.45h1.91a1.35,1.35,0,0,0,.92-.24,1.1,1.1,0,0,0,.27-.85,1,1,0,0,0-.24-.73,1.15,1.15,0,0,0-.82-.24h-2Z" transform="translate(-365.94 -288.08)"/><polyline class="cls-2" points="36.28 10.23 31.09 10.23 31.09 3.14 36.31 3.14 35.97 4.21 32.24 4.21 32.24 5.93 35.64 5.93 35.64 7.02 32.24 7.02 32.24 9.16 36.28 9.16"/><path class="cls-2" d="M406.69,298.32h-3.36v-7.1h3.34a2.72,2.72,0,0,1,1.3.28,2.4,2.4,0,0,1,.84.77,3,3,0,0,1,.46,1.09,6.16,6.16,0,0,1,.14,1.3,7.56,7.56,0,0,1-.12,1.36,3.33,3.33,0,0,1-.42,1.17,2.28,2.28,0,0,1-.84.82,2.68,2.68,0,0,1-1.34.31m-2.21-1.08h1.85a1.81,1.81,0,0,0,1-.22,1.46,1.46,0,0,0,.56-.57,2.61,2.61,0,0,0,.26-.83,7.5,7.5,0,0,0,.06-1,6.56,6.56,0,0,0-.07-.9,2,2,0,0,0-.28-.76,1.48,1.48,0,0,0-.57-.51,2,2,0,0,0-.94-.2h-1.84Z" transform="translate(-365.94 -288.08)"/><rect class="cls-2" x="44.51" y="3.14" width="1.15" height="7.1"/><path class="cls-2" d="M413.85,294.77a5.89,5.89,0,0,0,.09,1.08,2,2,0,0,0,.32.82,1.38,1.38,0,0,0,.64.52,2.7,2.7,0,0,0,1.08.18,2.86,2.86,0,0,0,.82-.11,1.52,1.52,0,0,0,.69-.46l.76.72a2.56,2.56,0,0,1-1,.7,3.39,3.39,0,0,1-1.23.22,3.83,3.83,0,0,1-1.52-.27,2.59,2.59,0,0,1-1-.74,3,3,0,0,1-.59-1.15,5.33,5.33,0,0,1-.19-1.49v-.38a4.05,4.05,0,0,1,.22-1.39,2.67,2.67,0,0,1,1.68-1.7,4.15,4.15,0,0,1,1.42-.22,3.57,3.57,0,0,1,1.21.2,2.72,2.72,0,0,1,1,.66l-.77.79a1.83,1.83,0,0,0-.68-.45,2.45,2.45,0,0,0-.8-.12,2.06,2.06,0,0,0-1.61.57,2.43,2.43,0,0,0-.52,1.68" transform="translate(-365.94 -288.08)"/><path class="cls-2" d="M422.5,298.44a4,4,0,0,1-1.51-.27,2.8,2.8,0,0,1-1.07-.77,3.21,3.21,0,0,1-.65-1.16,4.64,4.64,0,0,1-.22-1.48v-.27a3.65,3.65,0,0,1,.26-1.38A3.13,3.13,0,0,1,420,292a3.16,3.16,0,0,1,1.09-.69,4,4,0,0,1,2.78,0A3.16,3.16,0,0,1,425,292a3.28,3.28,0,0,1,.71,1.07,3.64,3.64,0,0,1,.25,1.38v.27a5,5,0,0,1-.21,1.48,3.21,3.21,0,0,1-.65,1.16,2.92,2.92,0,0,1-1.08.77,3.86,3.86,0,0,1-1.5.27m0-6.27a2.16,2.16,0,0,0-1.69.63,2.45,2.45,0,0,0-.56,1.71v.23a4.26,4.26,0,0,0,.11,1,2.17,2.17,0,0,0,.37.83,1.9,1.9,0,0,0,.69.56,2.58,2.58,0,0,0,1.06.19,2.85,2.85,0,0,0,1.09-.18,1.7,1.7,0,0,0,.69-.54,2,2,0,0,0,.37-.83,4.49,4.49,0,0,0,.12-1.07v-.23a2.45,2.45,0,0,0-.57-1.71,2.15,2.15,0,0,0-1.68-.63" transform="translate(-365.94 -288.08)"/><path class="cls-2" d="M429.41,295.67a.63.63,0,0,0-.28-.2.86.86,0,0,0-.35-.06h-.67v2.91H427v-7.1h3.35a2.45,2.45,0,0,1,.83.14,1.86,1.86,0,0,1,1.07,1.06,2.19,2.19,0,0,1,.15.83,2.38,2.38,0,0,1-.46,1.51,1.79,1.79,0,0,1-1.32.65l1.34,1.7a.88.88,0,0,0,.3.27,1,1,0,0,0,.39.06v.88a1.23,1.23,0,0,1-.25.08.82.82,0,0,1-.26,0,.81.81,0,0,1-.55-.21,2.46,2.46,0,0,1-.42-.44m-3-3.45H430a1.35,1.35,0,0,0,.92-.24,1.1,1.1,0,0,0,.27-.85,1,1,0,0,0-.24-.73,1.13,1.13,0,0,0-.82-.24h-2Z" transform="translate(-365.94 -288.08)"/><path class="cls-2" d="M433.66,298.32v-7.1h3.51a2.28,2.28,0,0,1,.89.16,1.67,1.67,0,0,1,.64.46,1.94,1.94,0,0,1,.39.69,2.82,2.82,0,0,1,.13.89,3.36,3.36,0,0,1-.12.92,2.25,2.25,0,0,1-.38.74,1.74,1.74,0,0,1-.64.49,2.14,2.14,0,0,1-.91.18h-2.36v2.57m0-6v2.39h2a1.4,1.4,0,0,0,1-.3,1.26,1.26,0,0,0,.31-.95,1,1,0,0,0-.33-.87,1.51,1.51,0,0,0-1-.27Z" transform="translate(-365.94 -288.08)"/><path class="cls-3" d="M443.4,298.31c-1.84,0-3.24-1.25-3.24-3.75s1.4-3.75,3.24-3.75a2.9,2.9,0,0,1,2.41,1.09l-.73.68a2,2,0,0,0-1.68-.81,2,2,0,0,0-1.69.83,4.26,4.26,0,0,0,0,3.93,2,2,0,0,0,1.69.83,2,2,0,0,0,1.68-.83l.73.7a2.92,2.92,0,0,1-2.41,1.08" transform="translate(-365.94 -288.08)"/><rect class="cls-3" x="94.19" y="2.82" width="1.07" height="7.32"/><path class="cls-3" d="M465,298.22a1.79,1.79,0,0,1-1.87-2v-4.49h-.92V291h.92v-2.43l1.07-.32V291h1.56v.82h-1.56v4.46c0,.67.31,1.07,1,1.07h.56v.92" transform="translate(-365.94 -288.08)"/><path class="cls-3" d="M475.17,298.22a1.74,1.74,0,0,1-1.86-2v-7.75l1.07-.32v8c0,.71.24,1.07,1,1.07h.57v.92" transform="translate(-365.94 -288.08)"/><rect class="cls-3" x="94.18" y="0.12" width="1.11" height="1.11"/><path class="cls-3" d="M458.31,291.45a2.59,2.59,0,0,0-1.79-.64,2.32,2.32,0,0,0-2.06.95,3.76,3.76,0,0,0-.13-.4l-.19-.38-1.06.51a3,3,0,0,1,.3,1.32v7.84h1.08v-3.29a2.35,2.35,0,0,0,2.06.95,2.54,2.54,0,0,0,1.79-.64,5.88,5.88,0,0,0,0-6.22m-2,5.91c-1.59,0-1.84-1.37-1.84-2.8s.25-2.79,1.84-2.79,1.83,1.37,1.83,2.79-.24,2.8-1.83,2.8" transform="translate(-365.94 -288.08)"/><path class="cls-3" d="M452.43,297.48a3.2,3.2,0,0,1-.09-.68v-3.55c0-1.59-1-2.44-2.93-2.44a2.82,2.82,0,0,0-2.58,1.09l.73.67a1.91,1.91,0,0,1,1.84-.83c1.34,0,1.87.53,1.87,1.6v.7h-2.2c-1.63,0-2.53.84-2.53,2.12a2.11,2.11,0,0,0,.55,1.48,2.61,2.61,0,0,0,2.07.67,2.55,2.55,0,0,0,2.11-.79,2.06,2.06,0,0,0,.07.32,1,1,0,0,0,.16.38h1.23a3.83,3.83,0,0,1-.3-.74m-3.16-.09c-1.16,0-1.68-.4-1.68-1.25s.53-1.29,1.63-1.29h2v.78a1.68,1.68,0,0,1-.37,1.27,2.15,2.15,0,0,1-1.63.49" transform="translate(-365.94 -288.08)"/><path class="cls-3" d="M472.38,297.48a4.1,4.1,0,0,1-.08-.68v-3.55c0-1.59-1-2.44-2.93-2.44a2.84,2.84,0,0,0-2.59,1.09l.73.67a1.92,1.92,0,0,1,1.84-.83c1.35,0,1.88.53,1.88,1.6v.7H469c-1.64,0-2.53.84-2.53,2.12a2.06,2.06,0,0,0,.55,1.48,2.6,2.6,0,0,0,2.07.67,2.56,2.56,0,0,0,2.11-.79,2,2,0,0,0,.06.32,1.12,1.12,0,0,0,.17.38h1.22a3.83,3.83,0,0,1-.3-.74m-3.16-.09c-1.16,0-1.68-.4-1.68-1.25s.54-1.29,1.64-1.29h2.05v.78a1.72,1.72,0,0,1-.37,1.27,2.16,2.16,0,0,1-1.64.49" transform="translate(-365.94 -288.08)"/><polygon class="cls-4" points="9.92 0 4.95 5.29 0 2.49 0 10.55 17.78 10.55 9.92 0"/><polyline class="cls-5" points="0 10.55 0 2.5 0 2.5 3.9 6.41 0 10.55"/><path class="cls-6" d="M370.52,293.16l-4.58-2.58Z" transform="translate(-365.94 -288.08)"/><polyline class="cls-5" points="14.27 10.55 2.47 3.89 14.27 10.55"/><polygon class="cls-5" points="3.9 6.41 0 2.5 3.9 6.41 3.9 6.41"/><path class="cls-7" d="M373.54,298.2l-3.7-3.71Z" transform="translate(-365.94 -288.08)"/><path class="cls-6" d="M374,298.63h0Z" transform="translate(-365.94 -288.08)"/><polygon class="cls-8" points="8.02 10.55 0 10.55 3.9 6.41 7.59 10.12 8.02 10.55"/><polygon class="cls-8" points="6.67 9.19 3.9 6.41 3.9 6.41 3.9 6.41 6.67 9.19"/><polygon class="cls-9" points="9.92 0 4.95 5.29 14.27 10.55 17.78 10.55 9.92 0"/><polygon class="cls-6" points="2.47 3.89 0 2.5 0 2.49 2.47 3.89"/><polygon class="cls-10" points="3.9 6.41 0 2.5 4.95 5.29 3.9 6.41 3.9 6.41"/><path class="cls-11" d="M369.84,294.49" transform="translate(-365.94 -288.08)"/><path class="cls-12" d="M380.21,298.63h0Z" transform="translate(-365.94 -288.08)"/><polygon class="cls-13" points="14.27 10.55 8.02 10.55 7.12 9.64 8.02 10.55 14.27 10.55 14.27 10.55"/><polygon class="cls-14" points="14.27 10.55 8.02 10.55 7.12 9.64 3.9 6.41 4.95 5.29 14.27 10.55"/><path class="cls-15" d="M374,298.63l-1.35-1.36Z" transform="translate(-365.94 -288.08)"/><path class="cls-6" d="M374,298.63" transform="translate(-365.94 -288.08)"/><path class="cls-16" d="M374,298.63l-.42-.43Z" transform="translate(-365.94 -288.08)"/><polygon class="cls-16" points="7.12 9.64 3.9 6.41 3.9 6.41 7.12 9.64"/><polygon class="cls-17" points="3.9 6.41 3.9 6.41 4.95 5.29 3.9 6.41"/><line class="cls-18" x1="3.9" y1="6.41" x2="3.9" y2="6.41"/><polygon class="cls-19" points="9.92 0 14.27 10.55 17.78 10.55 9.92 0"/></svg>