<svg width="120" height="120" viewBox="0 0 120 120" fill="none" xmlns="http://www.w3.org/2000/svg">
<circle cx="60.5" cy="59.5" r="42.5" fill="#FF9333"/>
<path fill-rule="evenodd" clip-rule="evenodd" d="M98.7272 101.096C101.482 102.572 104.973 102.254 107.438 100.042C110.597 97.2055 110.873 92.3315 108.053 89.1544L86.3868 65.5754C83.5686 62.4012 78.7209 62.1213 75.5621 64.9575C72.4027 67.7926 72.1272 72.6677 74.9477 75.8448L96.6137 99.4237C97.2332 100.122 97.951 100.68 98.7272 101.096" fill="#477AD7"/>
<path fill-rule="evenodd" clip-rule="evenodd" d="M102.931 102.987C98.7959 103.226 95.2508 100.066 95.0127 95.9309C94.774 91.7958 97.9334 88.2508 102.069 88.0126C106.204 87.7745 109.749 90.9334 109.987 95.0685C110.226 99.2036 107.066 102.749 102.931 102.987" fill="#477AD7"/>
<path fill-rule="evenodd" clip-rule="evenodd" d="M101.77 88C101.77 88 104.29 91.3808 105 93.2601L101.708 103L81.942 101.165C79.1889 100.883 77.0742 98.6221 77.0019 95.8837C76.928 93.0918 78.9989 90.6951 81.7975 90.3342L101.77 88Z" fill="#477AD7"/>
<path fill-rule="evenodd" clip-rule="evenodd" d="M22.2728 103.096C19.5175 104.572 16.0266 104.254 13.5616 102.042C10.4028 99.2055 10.1273 94.3315 12.9472 91.1544L34.6132 67.5754C37.4314 64.4012 42.2791 64.1213 45.4379 66.9575C48.5973 69.7926 48.8728 74.6677 46.0523 77.8448L24.3863 101.424C23.7668 102.122 23.049 102.68 22.2728 103.096" fill="#477AD7"/>
<path fill-rule="evenodd" clip-rule="evenodd" d="M18.069 103.987C22.2041 104.226 25.7492 101.066 25.9873 96.9309C26.226 92.7958 23.0666 89.2508 18.9315 89.0126C14.7964 88.7745 11.2508 91.9334 11.0126 96.0685C10.7745 100.204 13.9339 103.749 18.069 103.987" fill="#477AD7"/>
<path fill-rule="evenodd" clip-rule="evenodd" d="M18.2304 89C18.2304 89 15.71 92.3808 15 94.2601L18.2919 104L38.058 102.165C40.8111 101.883 42.9258 99.6221 42.9981 96.8837C43.072 94.0918 41.0011 91.6951 38.2025 91.3342L18.2304 89Z" fill="#477AD7"/>
<path fill-rule="evenodd" clip-rule="evenodd" d="M65.0376 0H55.9531C41.9247 0 30 8.1228 30 22.0067L30 76.8821C30 82.0164 34.162 86 39.0752 86H81.798C86.8798 86 92 81.9178 92 76.8821C92 76.8821 92 37.5 92 22.0067C92 8.08301 79.066 0 65.0376 0Z" fill="#0A1B64"/>
<path fill-rule="evenodd" clip-rule="evenodd" d="M83.7692 115.649L78.2917 90.2518L79.8569 63.7312C67.1931 56.6928 54.485 56.7408 41.7348 63.7312L43.2999 90.2518L37.8225 115.649H83.7692Z" fill="#3262C4"/>
<path fill-rule="evenodd" clip-rule="evenodd" d="M60.7696 82.7674C60.7696 88.3481 56.2009 92.8723 50.5645 92.8723C44.9282 92.8723 40.3595 88.3481 40.3595 82.7674C40.3595 77.1874 44.9282 72.6632 50.5645 72.6632C56.2009 72.6632 60.7696 77.1874 60.7696 82.7674" fill="#3262C4"/>
<path fill-rule="evenodd" clip-rule="evenodd" d="M81.232 82.7674C81.232 88.3481 76.6633 92.8723 71.027 92.8723C65.3907 92.8723 60.8219 88.3481 60.8219 82.7674C60.8219 77.1874 65.3907 72.6632 71.027 72.6632C76.6633 72.6632 81.232 77.1874 81.232 82.7674" fill="#3262C4"/>
<path fill-rule="evenodd" clip-rule="evenodd" d="M61 66V66C57.6861 66 55 63.3482 55 60.0768V54H67V60.0768C67 63.3482 64.3139 66 61 66" fill="#FFD9C0"/>
<path fill-rule="evenodd" clip-rule="evenodd" d="M67 54V60.1268C67 63.3707 64.3133 66 61 66V54H67Z" fill="#FFC49C"/>
<path fill-rule="evenodd" clip-rule="evenodd" d="M85 32C85 18.1929 74.4782 7 61.5003 7C48.5212 7 38 18.1929 38 32C38 45.8071 48.5212 57 61.5003 57C74.4782 57 85 45.8071 85 32" fill="#FFD9C0"/>
<path fill-rule="evenodd" clip-rule="evenodd" d="M62 57C74.7022 57 85 45.7869 85 31.9548C85 22.4957 80.1843 14.2615 73.0776 10L76.2527 18.3145C77.4917 22.4871 79.2581 25.997 82.5489 27.5945C82.5489 27.5945 85.9558 52.4502 62 57" fill="#FFC49C"/>
<path fill-rule="evenodd" clip-rule="evenodd" d="M65.6159 0H56.3847C41.8731 0 30 8.466 30 22.5858V29H36.4639C47.9948 29 59.4239 26.8964 70.1579 22.7975L76.7199 20.2918L78.721 22.7514C81.9341 26.6986 86.8255 29 92 29V22.5858C92 8.466 80.1274 0 65.6159 0" fill="#0A1B64"/>
<path fill-rule="evenodd" clip-rule="evenodd" d="M60.434 32.9857L62.7766 40.5462L57.9732 40.5212L60.434 32.9857Z" fill="#FFC49C"/>
<path fill-rule="evenodd" clip-rule="evenodd" d="M48.1413 35.3377V35.3377C47.4957 35.3377 46.9667 34.8075 46.9667 34.1604V32.5903C46.9667 31.9432 47.4957 31.413 48.1413 31.413C48.7877 31.413 49.3167 31.9432 49.3167 32.5903V34.1604C49.3167 34.8075 48.7877 35.3377 48.1413 35.3377" fill="#0A1B64"/>
<path fill-rule="evenodd" clip-rule="evenodd" d="M65.4257 45.7556C65.4257 48.3368 63.3384 50.4289 60.7632 50.4289C58.188 50.4289 56.1 48.3368 56.1 45.7556" fill="#FFAA71"/>
<path fill-rule="evenodd" clip-rule="evenodd" d="M74.2667 34.9331C74.2314 34.9331 74.1955 34.9295 74.1595 34.9206L69.9035 33.9014C69.6966 33.8521 69.5513 33.6675 69.5499 33.455C69.5491 33.2425 69.6937 33.0564 69.8991 33.0049L74.1551 31.946C74.4024 31.8842 74.6518 32.0357 74.7127 32.2828C74.7744 32.5299 74.624 32.7799 74.3774 32.8417L71.9556 33.444L74.3738 34.0227C74.6203 34.0823 74.7729 34.3308 74.7142 34.5794C74.6636 34.7905 74.475 34.9331 74.2667 34.9331" fill="#0A1B64"/>
<path fill-rule="evenodd" clip-rule="evenodd" d="M45 51C45 51 32.8653 51 30 51C30 51 30 61.3585 30 75H35.3169C40.4556 75 44.9544 70.2395 44.9544 65.4039L45 51Z" fill="#0A1B64"/>
<path fill-rule="evenodd" clip-rule="evenodd" d="M76 95H87.9685L88 102.954L76.0321 103L76 95Z" fill="#FFD9C0"/>
<path fill-rule="evenodd" clip-rule="evenodd" d="M68.0947 91.3993V91.3993C68.4362 90.349 69.6022 89.7636 70.698 90.0907L77.5393 92.1069C78.6357 92.434 79.2468 93.551 78.9053 94.6007C78.5638 95.651 77.3978 96.2364 76.3014 95.9093L69.4607 93.8931C68.3643 93.566 67.7532 92.4495 68.0947 91.3993" fill="#FFC49C"/>
<path fill-rule="evenodd" clip-rule="evenodd" d="M81.9935 99.3896L82 97.673C82.0107 94.5746 79.7099 92.0301 76.8859 92.0183L72.74 92C72.3568 91.9982 72.0425 92.3407 72.0409 92.7606L72 104.215C71.9984 104.636 72.3106 104.98 72.6932 104.982L76.8396 105C79.6631 105.012 81.9822 102.487 81.9935 99.3896" fill="#FFD9C0"/>
<path fill-rule="evenodd" clip-rule="evenodd" d="M64 93.9789V93.9789C64.0039 92.8815 64.8452 91.9953 65.8787 92L72.1357 92.0259C73.1697 92.0306 74.0039 92.9233 74 94.0206C73.9961 95.1179 73.1548 96.0041 72.1213 96L65.8643 95.9741C64.8308 95.9694 63.9961 95.0762 64 93.9789" fill="#FFD9C0"/>
<path fill-rule="evenodd" clip-rule="evenodd" d="M64 102.979V102.979C64.0039 101.882 64.8452 100.996 65.8787 101L72.1357 101.026C73.1692 101.031 74.0039 101.924 74 103.021C73.9956 104.118 73.1548 105.004 72.1213 105L65.8643 104.974C64.8303 104.969 63.9956 104.076 64 102.979" fill="#FFD9C0"/>
<path fill-rule="evenodd" clip-rule="evenodd" d="M63 98.4771V98.4771C63.0044 97.3811 63.8336 96.4959 64.8534 96.5L72.1608 96.5312C73.1806 96.5347 74.0038 97.4275 74 98.5235C73.9956 99.6195 73.1659 100.505 72.1466 100.5L64.8386 100.469C63.8194 100.465 62.9962 99.5731 63 98.4771" fill="#FFD9C0"/>
<path fill-rule="evenodd" clip-rule="evenodd" d="M41 94H29.0315L29 101.954L40.9679 102L41 94Z" fill="#FFD9C0"/>
<path fill-rule="evenodd" clip-rule="evenodd" d="M48.9053 90.3993V90.3993C48.5638 89.349 47.3978 88.7636 46.302 89.0907L39.4607 91.1069C38.3643 91.434 37.7532 92.551 38.0947 93.6007C38.4362 94.651 39.6022 95.2364 40.6986 94.9093L47.5393 92.8931C48.6357 92.566 49.2468 91.4495 48.9053 90.3993" fill="#FFC49C"/>
<path fill-rule="evenodd" clip-rule="evenodd" d="M35.0065 98.3896L35 96.673C34.9893 93.5746 37.2901 91.0301 40.1141 91.0183L44.26 91C44.6432 90.9982 44.9575 91.3407 44.9591 91.7606L45 103.215C45.0016 103.636 44.6894 103.98 44.3068 103.982L40.1604 104C37.3369 104.012 35.0178 101.487 35.0065 98.3896" fill="#FFD9C0"/>
<path fill-rule="evenodd" clip-rule="evenodd" d="M53 92.9788V92.9788C52.9961 91.8815 52.1548 90.9953 51.1213 91L44.8643 91.0259C43.8303 91.0306 42.9961 91.9233 43 93.0206C43.0039 94.1179 43.8452 95.0041 44.8787 95L51.1357 94.9741C52.1692 94.9694 53.0039 94.0761 53 92.9788" fill="#FFD9C0"/>
<path fill-rule="evenodd" clip-rule="evenodd" d="M53 101.979V101.979C52.9961 100.882 52.1548 99.9959 51.1213 100L44.8643 100.026C43.8308 100.031 42.9961 100.924 43 102.021C43.0044 103.118 43.8452 104.004 44.8787 104L51.1357 103.974C52.1697 103.969 53.0044 103.076 53 101.979" fill="#FFD9C0"/>
<path fill-rule="evenodd" clip-rule="evenodd" d="M54 97.4771V97.4771C53.9956 96.3811 53.1664 95.4959 52.1466 95.5L44.8392 95.5311C43.8194 95.5347 42.9962 96.4275 43 97.5235C43.0044 98.6195 43.8341 99.5047 44.8534 99.5L52.1614 99.4694C53.1806 99.4653 54.0038 98.5731 54 97.4771" fill="#FFD9C0"/>
<rect x="24" y="70" width="77" height="50" rx="4" fill="#F2F8FF"/>
<path fill-rule="evenodd" clip-rule="evenodd" d="M22.0112 115.081C22.0112 115.081 21.8174 120 24.9659 120C28.1144 120 98.7067 120 98.7067 120C98.7067 120 101.875 119.235 102 115.081C96.9505 114.919 67.0887 115.081 67.0887 115.081V116.579H56.8837V115.081H22.0112Z" fill="#8FBAFC"/>
<path fill-rule="evenodd" clip-rule="evenodd" d="M22.0112 114.081C22.0112 114.081 21.8174 119 24.9659 119C28.1144 119 98.7067 119 98.7067 119C98.7067 119 101.875 118.235 102 114.081C96.9505 113.919 67.0887 114.081 67.0887 114.081V115.579H56.8837V114.081H22.0112Z" fill="#D0E5FF"/>
<path d="M61.0749 91.2102C61.5486 90.7364 62.1895 90.4299 62.9141 90.4299C63.8615 90.4299 64.6975 90.9594 65.1434 91.7396C65.5335 91.5724 65.9515 91.461 66.3974 91.461C68.1251 91.461 69.5184 92.8543 69.5184 94.582C69.5184 96.3097 68.1251 97.7031 66.3974 97.7031C66.1745 97.7031 65.9794 97.6752 65.7843 97.6473C65.3942 98.344 64.6418 98.8177 63.7779 98.8177C63.4157 98.8177 63.0813 98.7341 62.7747 98.5948C62.3846 99.5144 61.465 100.155 60.3782 100.155C59.2636 100.155 58.2882 99.4587 57.926 98.4555C57.7588 98.4833 57.5916 98.5112 57.4244 98.5112C56.0868 98.5112 55 97.4244 55 96.0868C55 95.1951 55.4737 94.4148 56.1983 93.9968C56.0589 93.6624 55.9753 93.2723 55.9753 92.8822C55.9753 91.3495 57.2293 90.0955 58.7898 90.0955C59.7652 90.1234 60.5733 90.5414 61.0749 91.2102Z" fill="#00A1E0"/>
</svg>
