<?xml version="1.0" encoding="UTF-8"?>
<svg width="100px" height="100px" viewBox="0 0 100 100" version="1.1" xmlns="http://www.w3.org/2000/svg" xmlns:xlink="http://www.w3.org/1999/xlink">
    <title>Illustrations / Spot Heroes / sh_woman_hand</title>
    <defs>
        <ellipse id="path-1" cx="58.1421967" cy="63.8655763" rx="36.02447" ry="36.1344237"></ellipse>
        <ellipse id="path-3" cx="36.02447" cy="36.1344237" rx="36.02447" ry="36.1344237"></ellipse>
    </defs>
    <g id="Cards" stroke="none" stroke-width="1" fill="none" fill-rule="evenodd">
        <g id="Cards-/-Clouds-Light-/-Asistente-/-Default" transform="translate(-338, -12)">
            <g id="Illustrations-/-Spot-Heroes-/-sh_woman_hand" transform="translate(341.3333, 12)">
                <mask id="mask-2" fill="white">
                    <use xlink:href="#path-1"></use>
                </mask>
                <use id="Oval" fill="#FF9333" xlink:href="#path-1"></use>
                <path d="M84.1447174,145.177067 C86.9301921,145.177067 89.5396021,143.4502 90.5370247,140.672051 C90.6674121,140.308851 93.7352545,131.655354 94.8290142,118.82672 C95.7658107,107.839079 94.3805478,98.2284326 90.7130892,90.2605182 C87.2964396,82.8349051 82.6124572,78.2757419 79.3893125,75.4917617 C76.5440423,73.0334956 72.2479003,73.3550445 69.7971144,76.2114981 C67.3446676,79.0654526 67.6660685,83.3747073 70.5138302,85.8321404 C76.3563508,90.876959 82.8566222,99.0539635 81.2728714,117.664646 C80.3427189,128.594808 77.7607151,135.987933 77.7324783,136.058741 C76.4784334,139.606608 78.3171456,143.509345 81.8500643,144.774715 C82.6091352,145.047115 83.383155,145.177067 84.1447174,145.177067" id="Path" fill="#477AD7" mask="url(#mask-2)"></path>
                <g id="arm_left" transform="translate(0, 25.692)">
                    <path d="M49.489476,64.004025 C37.9074158,70.3075492 22.3348351,68.9363848 6.28389031,65.6200997 C2.38970702,64.8153945 -0.116721883,60.9967933 0.684704192,57.0898912 C1.48696076,53.1838221 5.29477274,50.6697431 9.18895602,51.4736153 C21.8232512,54.0843256 32.5474118,53.0580349 41.0632905,48.4238992 C44.5580065,46.5220959 50.4885594,50.7072294 52.3845757,54.2134449 C54.280592,57.7188275 52.9841919,62.1022217 49.489476,64.004025" id="Path" fill="#477AD7"></path>
                    <g id="body" transform="translate(22.1177, 2.0391)">
                        <mask id="mask-4" fill="white">
                            <use xlink:href="#path-3"></use>
                        </mask>
                        <g id="Oval"></g>
                        <path d="M18.1600832,89.6557616 L21.4812261,73.5541601 L20.0328457,61.9184227 L18.1600832,46.8847633 C29.9763425,40.2297012 44.1611688,40.2763508 56.0588164,46.8847633 L52.7393345,73.5541601 L56.0588164,89.6557616 C56.0596469,95.8793151 18.1600832,95.8609885 18.1600832,89.6557616" id="Path" fill="#2853B8" mask="url(#mask-4)"></path>
                        <path d="M37.1433776,63.5010359 C37.1433776,68.7782693 41.407961,73.0542029 46.6683058,73.0542029 C51.9269896,73.0542029 56.1915729,68.7782693 56.1915729,63.5010359 C56.1915729,58.2246355 51.9269896,53.9495349 46.6683058,53.9495349 C41.407961,53.9495349 37.1433776,58.2246355 37.1433776,63.5010359" id="Path" fill="#2853B8" mask="url(#mask-4)"></path>
                        <path d="M18.0960128,63.5010359 C18.0960128,68.7782693 22.3605961,73.0542029 27.620941,73.0542029 C32.8787943,73.0542029 37.1433776,68.7782693 37.1433776,63.5010359 C37.1433776,58.2246355 32.8787943,53.9495349 27.620941,53.9495349 C22.3605961,53.9495349 18.0960128,58.2246355 18.0960128,63.5010359" id="Path" fill="#2853B8" mask="url(#mask-4)"></path>
                    </g>
                    <path d="M0.893407169,61.1901392 C-0.770901489,50.0608828 0.219046575,39.6463646 1.21148612,32.9504842 C1.73303594,29.4276081 5.0184676,27.0093273 8.52647148,27.563291 C11.7545991,28.0731043 14.075828,30.9412203 13.9155428,34.215854 C13.6207176,40.1828348 13.695462,49.4327796 15.133046,59.0484237 L0.893407169,61.1901392 Z" id="Path" fill="#477AD7"></path>
                    <path d="M17.348387,4.62394442 L17.1606955,10.6584005 C17.1191708,12.0212346 15.9822255,13.0925088 14.6235384,13.0500244 C13.2640208,13.0075399 12.1968368,11.8679574 12.239192,10.5042903 L12.426053,4.47066723" id="Path" fill="#FFD9C0"></path>
                    <path d="M6.25839416,4.27815442 L6.07070267,10.3126105 C6.029178,11.6754446 4.89223261,12.7467188 3.5335455,12.7042344 C2.1740279,12.6617499 1.10684396,11.5221674 1.14919912,10.1585003 L1.33606012,4.12487724" id="Path" fill="#FFD9C0"></path>
                    <path d="M11.8033491,4.45109107 L11.6156576,10.4855471 C11.5741329,11.8483812 10.4371875,12.9196554 9.0785004,12.877171 C7.7189828,12.8346866 6.65179886,11.695104 6.69415402,10.3314369 L6.88101502,4.29781389" id="Path" fill="#FFD9C0"></path>
                    <path d="M9.82528002,22.9778042 L7.70752199,22.9119949 C3.88725262,22.7928719 0.857612906,19.5590566 0.976373454,15.726294 L1.15077706,10.0983556 C1.16655643,9.57854606 1.60422642,9.16619712 2.12245427,9.18285768 L16.2499765,9.62352958 C16.7682044,9.63935712 17.1784681,10.078363 17.1626887,10.5981725 L16.9882851,16.2261109 C16.8695245,20.0588735 13.6463799,23.0969272 9.82528002,22.9778042" id="Path" fill="#FFD9C0"></path>
                    <polygon id="Path" fill="#FFD9C0" points="12.7275017 30.9746334 13.0833333 19.6235013 2.85664966 19.3079667 2.5 30.6590989"></polygon>
                    <path d="M20.8269084,12.0438929 L20.8269084,12.0438929 C21.7578914,13.0376955 21.7088923,14.6004564 20.7189442,15.535114 L14.7194603,21.1897092 C13.7286818,22.1235338 12.1706763,22.0752182 11.2388627,21.0814155 C10.3078797,20.0867799 10.3568788,18.5240191 11.3476574,17.5901945 L17.3471413,11.9355993 C18.3370893,11.0017747 19.8959253,11.0500903 20.8269084,12.0438929" id="Path" fill="#FFC49C"></path>
                    <path d="M2.35648729,20.0967762 L3.28331786,21.0855807 C6.26229748,24.2660822 11.2934261,24.4226915 14.4634192,21.4346195 L15.2839467,20.6615693 L11.4827786,16.6047222 C10.0792449,15.1052715 7.72977922,15.031965 6.2348912,16.4406156 L2.35648729,20.0967762 Z" id="Path" fill="#FFC49C"></path>
                    <path d="M14.9753353,1.69535058 L14.9753353,1.69535058 C16.3348529,1.73783502 17.4028674,2.87741756 17.3596817,4.24108467 L17.2525481,7.69481946 C17.2101929,9.05765355 16.074078,10.1289278 14.7153909,10.0864433 C13.3558733,10.0439589 12.2886894,8.90437637 12.330214,7.54070925 L12.4373477,4.08780749 C12.4797028,2.72414037 13.6158177,1.65286615 14.9753353,1.69535058" id="Path" fill="#FFD9C0"></path>
                    <path d="M3.88525944,1.34956059 L3.88525944,1.34956059 C5.24477704,1.39204503 6.31196098,2.53162756 6.26960582,3.89529468 L6.16247218,7.34819644 C6.12011702,8.71186356 4.98400213,9.78313778 3.62531502,9.74065335 C2.26662791,9.69816891 1.19861347,8.55858637 1.24013814,7.19491926 L1.34727178,3.74118447 C1.38962694,2.37835038 2.52574183,1.30707615 3.88525944,1.34956059" id="Path" fill="#FFD9C0"></path>
                    <path d="M9.47730331,0.00122119525 L9.47730331,0.00122119525 C10.8368209,0.0437056319 11.9048353,1.18328817 11.8616497,2.54695528 L11.7080084,7.52179951 C11.6656533,8.8846336 10.5295384,9.95590782 9.17002077,9.91342339 C7.81133366,9.87093895 6.74331922,8.73135641 6.78567438,7.3676893 L6.93931565,2.39284507 C6.98250131,1.03001098 8.11778571,-0.0412632414 9.47730331,0.00122119525" id="Path" fill="#FFD9C0"></path>
                </g>
                <path d="M50.8065553,61.7753698 L67.5451487,61.7753698 C77.4836625,61.7753698 85.5411089,53.6916644 85.5411089,43.7228163 L85.5411089,33.9505629 L32.8122561,33.9505629 L32.8122561,43.7228163 C32.8122561,53.6916644 40.8663805,61.7753698 50.8065553,61.7753698" id="Path" fill="#0A1B64"></path>
                <path d="M58.8973876,76.1349428 L58.8973876,76.1349428 C62.4469161,76.1349428 65.3237451,73.2485002 65.3237451,69.6881378 L65.3237451,63.0780593 L52.4726911,63.0780593 L52.4726911,69.6881378 C52.4726911,73.2485002 55.3503505,76.1349428 58.8973876,76.1349428" id="Path" fill="#FFD9C0"></path>
                <path d="M52.4723589,62.9646841 L52.4723589,69.6880545 C52.4723589,73.2484169 55.3500183,76.1348595 58.8970554,76.1348595 L58.8970554,62.9646841 L52.4723589,62.9646841 Z" id="Path" fill="#FFC49C"></path>
                <path d="M36.353978,42.0503457 C36.353978,28.4444966 46.5956219,17.4168697 59.2265951,17.4168697 C71.8600599,17.4168697 82.1008733,28.4444966 82.1008733,42.0503457 C82.1008733,55.6553617 71.8600599,66.6821556 59.2265951,66.6821556 C46.5956219,66.6821556 36.353978,55.6553617 36.353978,42.0503457" id="Path" fill="#FFD9C0"></path>
                <path d="M51.7886968,55.7449123 C51.7886968,59.6426511 54.9346056,62.7981618 58.8213144,62.7981618 C62.7063623,62.7981618 65.853932,59.6426511 65.853932,55.7449123" id="Path" fill="#FFAA71"></path>
                <polygon id="Path" fill="#FFC49C" points="58.9517019 45.2156861 56.7251492 52.4038862 61.2878796 52.3805614"></polygon>
                <path d="M69.4164163,47.358901 L69.4164163,47.358901 C70.0309813,47.358901 70.5325993,46.855752 70.5325993,46.2393111 L70.5325993,44.7473577 C70.5325993,44.1309168 70.0309813,43.6277678 69.4164163,43.6277678 C68.8026817,43.6277678 68.3010637,44.1309168 68.3010637,44.7473577 L68.3010637,46.2393111 C68.3010637,46.855752 68.8026817,47.358901 69.4164163,47.358901" id="Path" fill="#0A1B64"></path>
                <path d="M48.2866724,47.358901 L48.2866724,47.358901 C48.9012375,47.358901 49.403686,46.855752 49.403686,46.2393111 L49.403686,44.7473577 C49.403686,44.1309168 48.9012375,43.6277678 48.2866724,43.6277678 C47.6721074,43.6277678 47.1713199,44.1309168 47.1713199,44.7473577 L47.1713199,46.2393111 C47.1713199,46.855752 47.6721074,47.358901 48.2866724,47.358901" id="Path" fill="#0A1B64"></path>
                <path d="M59.9062709,34.5559244 L59.9062709,34.5559244 C58.9063569,39.6099064 54.4831494,43.2544046 49.3440566,43.2544046 L39.4130172,43.2544046 C39.3341203,53.0599792 44.9432723,60.7754861 52.4650506,65.6003853 C52.4650506,65.6003853 36.3543102,60.831299 36.3543102,42.0506789 C36.3543102,23.5216333 59.9876592,29.6235647 59.9876592,29.6235647 L59.9062709,34.5559244 Z" id="Path" fill="#FFC49C"></path>
                <path d="M50.2541942,8.9867079 C50.2541942,4.02186 54.2654771,0 59.2143869,0 C64.1641272,0 68.1737491,4.02186 68.1737491,8.9867079 C68.1737491,13.9507228 64.1641272,17.9750818 59.2143869,17.9750818 C54.2654771,17.9750818 50.2541942,13.9507228 50.2541942,8.9867079" id="Path" fill="#0A1B64"></path>
                <path d="M38.2542298,40.8178805 C36.0160503,40.8178805 34.1997613,42.6405461 34.1997613,44.8855571 C34.1997613,47.1330671 36.0160503,48.9532336 38.2542298,48.9532336" id="Path" fill="#FFC49C"></path>
                <path d="M80.2257854,40.8178805 C82.463965,40.8178805 84.2794234,42.6405461 84.2794234,44.8855571 C84.2794234,47.1330671 82.463965,48.9532336 80.2257854,48.9532336" id="Path" fill="#FFD9C0"></path>
                <path d="M62.0197934,12.6177944 L56.9878342,12.6177944 C42.6202994,12.6177944 30.8646662,24.4076421 30.8646662,38.8198624 L30.8646662,41.586349 L50.1620095,41.586349 C54.6724188,41.586349 58.3282505,37.921025 58.3282505,33.396016 L62.6758831,41.586349 L87.5898529,41.586349 L87.5898529,38.2650657 C87.5898529,24.0994216 76.1415022,12.6177944 62.0197934,12.6177944" id="Path" fill="#0A1B64"></path>
                <path d="M80.3425528,48.1532767 C80.3425528,47.2952576 81.0351842,46.6005121 81.8914229,46.6005121 C82.746831,46.6005121 83.438632,47.2952576 83.438632,48.1532767 C83.438632,49.0129617 82.746831,49.7068742 81.8914229,49.7068742 C81.0351842,49.7068742 80.3425528,49.0129617 80.3425528,48.1532767" id="Path" fill="#E4ECF6"></path>
                <path d="M34.8779422,48.1532767 C34.8779422,47.2952576 35.5722346,46.6005121 36.4251513,46.6005121 C37.2813899,46.6005121 37.9756824,47.2952576 37.9756824,48.1532767 C37.9756824,49.0129617 37.2813899,49.7068742 36.4251513,49.7068742 C35.5722346,49.7068742 34.8779422,49.0129617 34.8779422,48.1532767" id="Path" fill="#E4ECF6"></path>
                <path d="M69.0416977,13.9287308 C69.3307094,13.9287308 69.5964672,13.7404664 69.680347,13.4472405 C69.7808367,13.0940366 69.5765354,12.7241721 69.2219147,12.6242087 C66.8923809,11.9577862 64.4673403,11.6179107 62.0198765,11.6179107 L56.9879173,11.6179107 C54.5404534,11.6179107 52.1145824,11.953621 49.7767436,12.6150454 C49.4237839,12.7133427 49.2178216,13.0807081 49.3166503,13.4355781 C49.415479,13.7896151 49.7850485,13.9978722 50.1371777,13.8954097 C52.3579169,13.2698055 54.6625359,12.9507557 56.9879173,12.9507557 L62.0198765,12.9507557 C64.3435968,12.9507557 66.6457244,13.2723046 68.8581586,13.904573 C68.9204456,13.9220666 68.9810717,13.9287308 69.0416977,13.9287308" id="Path" fill="#2853B8"></path>
            </g>
        </g>
    </g>
</svg>